<svg width="122" height="84" viewBox="0 0 122 84" fill="none" xmlns="http://www.w3.org/2000/svg">
<path d="M112.679 81.2794H7.20877C5.26109 81.2794 3.68359 79.6863 3.68359 77.7193V9.69342C3.68359 7.72644 5.26109 6.1333 7.20877 6.1333H112.679C114.626 6.1333 116.204 7.72644 116.204 9.69342V77.7193C116.204 79.6863 114.626 81.2794 112.679 81.2794Z" fill="#455A64"/>
<path d="M117.599 83.0021H4.30667C1.92832 83.0021 0 81.0547 0 78.6528V76.4268H121.905V78.6528C121.905 81.0547 119.977 83.0021 117.599 83.0021Z" fill="#455A64"/>
<path d="M48.8516 75.7229L50.3637 78.1517H71.6503L73.0536 75.7229H48.8516Z" fill="#263238"/>
<path d="M115.236 75.723C115.236 75.7645 90.2621 75.7963 59.4622 75.7963C28.6526 75.7963 3.68359 75.7645 3.68359 75.723C3.68359 75.6814 28.6526 75.6497 59.4622 75.6497C90.2621 75.6497 115.236 75.6814 115.236 75.723Z" fill="#263238"/>
<path d="M111.751 73.7362H7.70133C7.2634 73.7362 6.91016 73.3771 6.91016 72.9372V11.2546C6.91016 10.8123 7.26582 10.4556 7.70133 10.4556H111.753C112.191 10.4556 112.545 10.8148 112.545 11.2546V72.9348C112.542 73.3771 112.189 73.7362 111.751 73.7362Z" fill="#EBEBEB"/>
<path d="M112.427 73.829H6.79297L6.90426 15.1836H112.427V73.829Z" fill="white"/>
<path d="M15.5599 12.8992C15.5599 13.3707 15.1825 13.7519 14.7155 13.7519C14.2485 13.7519 13.8711 13.3707 13.8711 12.8992C13.8711 12.4276 14.2485 12.0464 14.7155 12.0464C15.1825 12.0488 15.5599 12.43 15.5599 12.8992Z" fill="#263238"/>
<path d="M10.4583 12.8992C10.4583 13.3707 10.0809 13.7519 9.61393 13.7519C9.14697 13.7519 8.76953 13.3707 8.76953 12.8992C8.76953 12.4276 9.14697 12.0464 9.61393 12.0464C10.0809 12.0488 10.4583 12.43 10.4583 12.8992Z" fill="#263238"/>
<path d="M12.9036 12.8992C12.9036 13.3707 12.5262 13.7519 12.0592 13.7519C11.5923 13.7519 11.2148 13.3707 11.2148 12.8992C11.2148 12.4276 11.5923 12.0464 12.0592 12.0464C12.5262 12.0488 12.9036 12.43 12.9036 12.8992Z" fill="#263238"/>
<path d="M112.541 68.1653H6.79297V73.8292H112.541V68.1653Z" fill="#263238"/>
<path d="M10.7918 71.6522V71.833H9.9498V71.6889L10.4047 71.2539C10.516 71.1464 10.5353 71.0804 10.5353 71.0145C10.5353 70.9094 10.4627 70.8483 10.3224 70.8483C10.2111 70.8483 10.1192 70.8874 10.0538 70.968L9.90625 70.8532C9.99335 70.7335 10.153 70.6626 10.3393 70.6626C10.5885 70.6626 10.7482 70.7897 10.7482 70.9949C10.7482 71.1073 10.7168 71.2099 10.5595 71.359L10.2547 71.6522H10.7918Z" fill="white"/>
<path d="M10.9023 71.0804C10.9023 70.9974 10.9628 70.9436 11.0354 70.9436C11.108 70.9436 11.1685 70.9974 11.1685 71.0804C11.1685 71.1586 11.108 71.2173 11.0354 71.2173C10.9628 71.2173 10.9023 71.1586 10.9023 71.0804ZM10.9023 71.7084C10.9023 71.6253 10.9628 71.5716 11.0354 71.5716C11.108 71.5716 11.1685 71.6253 11.1685 71.7084C11.1685 71.7866 11.108 71.8452 11.0354 71.8452C10.9628 71.8452 10.9023 71.7866 10.9023 71.7084Z" fill="white"/>
<path d="M11.7049 70.6797V71.833H11.4919V70.8581H11.25V70.6772H11.7049V70.6797Z" fill="white"/>
<path d="M12.9496 71.5715H12.7464V71.833H12.5407V71.5715H11.9141V71.4225L12.4778 70.6797H12.7052L12.1754 71.3907H12.5504V71.1586H12.7488V71.3907H12.952V71.5715H12.9496Z" fill="white"/>
<path d="M101.488 71.1096H14.8125V71.5079H101.488V71.1096Z" fill="white"/>
<path d="M41.836 70.6797H14.75V71.745H41.836V70.6797Z" fill="#FF725E"/>
<path d="M42.7115 71.31C42.7115 72.0454 42.1211 72.6416 41.3928 72.6416C40.6646 72.6416 40.0742 72.0454 40.0742 71.31C40.0742 70.5745 40.6646 69.9783 41.3928 69.9783C42.1211 69.9783 42.7115 70.5745 42.7115 71.31Z" fill="#FF725E"/>
<path d="M103.666 71.2978C103.666 71.5275 103.482 71.6716 103.247 71.6716C102.935 71.6716 102.754 71.4688 102.754 71.0974C102.754 70.7016 102.981 70.4841 103.313 70.4841C103.427 70.4841 103.535 70.5086 103.613 70.5574L103.535 70.7187C103.472 70.6772 103.397 70.6625 103.318 70.6625C103.102 70.6625 102.967 70.7969 102.967 71.0608V71.0632C103.035 70.9826 103.146 70.9435 103.272 70.9435C103.499 70.9435 103.666 71.0803 103.666 71.2978ZM103.46 71.3076C103.46 71.1878 103.371 71.1121 103.233 71.1121C103.095 71.1121 103.001 71.1952 103.001 71.31C103.001 71.4175 103.085 71.5055 103.238 71.5055C103.371 71.503 103.46 71.4273 103.46 71.3076Z" fill="white"/>
<path d="M103.773 70.902C103.773 70.8189 103.834 70.7651 103.907 70.7651C103.979 70.7651 104.04 70.8189 104.04 70.902C104.04 70.9802 103.979 71.0388 103.907 71.0388C103.834 71.0388 103.773 70.9802 103.773 70.902ZM103.773 71.5299C103.773 71.4469 103.834 71.3931 103.907 71.3931C103.979 71.3931 104.04 71.4469 104.04 71.5299C104.04 71.6081 103.979 71.6668 103.907 71.6668C103.834 71.6668 103.773 71.6081 103.773 71.5299Z" fill="white"/>
<path d="M104.172 71.0779C104.172 70.6992 104.378 70.4841 104.649 70.4841C104.922 70.4841 105.128 70.6992 105.128 71.0779C105.128 71.4566 104.922 71.6716 104.649 71.6716C104.378 71.6716 104.172 71.4566 104.172 71.0779ZM104.912 71.0779C104.912 70.7993 104.806 70.6698 104.649 70.6698C104.494 70.6698 104.385 70.7993 104.385 71.0779C104.385 71.3564 104.494 71.4859 104.649 71.4859C104.806 71.4859 104.912 71.3564 104.912 71.0779Z" fill="white"/>
<path d="M105.273 71.0779C105.273 70.6992 105.479 70.4841 105.75 70.4841C106.023 70.4841 106.229 70.6992 106.229 71.0779C106.229 71.4566 106.023 71.6716 105.75 71.6716C105.479 71.6716 105.273 71.4566 105.273 71.0779ZM106.016 71.0779C106.016 70.7993 105.91 70.6698 105.752 70.6698C105.598 70.6698 105.489 70.7993 105.489 71.0779C105.489 71.3564 105.598 71.4859 105.752 71.4859C105.907 71.4859 106.016 71.3564 106.016 71.0779Z" fill="white"/>
<path d="M108.078 71.0071H107.684V69.8562H108.818V70.2545H108.078V71.0071Z" fill="white"/>
<path d="M108.823 72.5073H107.684V71.3589H108.078V72.109H108.823V72.5073Z" fill="white"/>
<path d="M110.637 72.5073H109.5V72.109H110.24V71.3564H110.637V72.5073Z" fill="white"/>
<path d="M110.632 71.0046H110.237V70.2545H109.492V69.8562H110.632V71.0046Z" fill="white"/>
<path d="M21.2806 18.6733H15.0529L11.9414 24.1174L15.0529 29.5638H21.2806L24.392 24.1174L21.2806 18.6733Z" fill="#EBEBEB"/>
<path d="M15.5609 25.1828C15.2827 24.8725 15.002 24.5573 14.7988 24.1907C14.5956 23.8242 14.4746 23.3991 14.5423 22.9837C14.5811 22.7418 14.6827 22.5121 14.6996 22.2677C14.7214 21.9305 14.5811 21.5787 14.6996 21.2635C14.8835 20.7699 15.5416 20.6941 15.9408 20.3545C16.2505 20.0882 16.4029 19.6581 16.7441 19.4358C17.0417 19.2403 17.4264 19.2452 17.7772 19.2965C18.128 19.3478 18.4837 19.4358 18.8345 19.3893C19.0861 19.3551 19.3208 19.2525 19.5676 19.1914C19.8144 19.1303 20.0878 19.1132 20.3055 19.2427C20.5233 19.3722 20.6467 19.685 20.5039 19.8951C20.9128 19.7045 21.4306 20.0271 21.5419 20.4645C21.6532 20.9043 21.4306 21.3783 21.0846 21.6691C20.7386 21.9599 20.291 22.0942 19.8507 22.1773C18.6022 22.4143 17.2449 22.28 16.1682 21.5982" fill="#263238"/>
<path d="M21.3269 26.5264C21.2857 25.7469 21.068 24.1489 20.8575 22.7048C20.63 21.1508 19.2582 20.0366 17.7073 20.1416L17.5525 20.1514C15.8976 20.3615 15.1499 21.8985 15.404 23.5649L15.8903 29.5636H19.9308C19.9308 29.5636 19.8365 28.5105 19.834 28.5007C19.834 28.5007 21.414 28.1415 21.3269 26.5264Z" fill="#FFBE9D"/>
<path d="M19.8172 28.4765C19.8172 28.4765 18.8131 28.628 17.6953 28.0195C17.6953 28.0195 18.2639 29.146 19.8486 28.8943L19.8172 28.4765Z" fill="#EB996E"/>
<path d="M20.3544 24.0902C20.3665 24.2124 20.2745 24.3224 20.1487 24.337C20.0229 24.3517 19.9116 24.2662 19.8995 24.1464C19.8874 24.0243 19.9793 23.9143 20.1027 23.8996C20.231 23.8825 20.3423 23.9681 20.3544 24.0902Z" fill="#263238"/>
<path d="M20.5772 23.5185C20.5506 23.5503 20.3691 23.433 20.1248 23.4501C19.8804 23.4648 19.7086 23.604 19.6796 23.5747C19.6651 23.5625 19.6917 23.5063 19.7643 23.4428C19.8369 23.3792 19.9651 23.3157 20.1175 23.3059C20.2699 23.2962 20.403 23.345 20.4804 23.3988C20.5603 23.4501 20.5893 23.5039 20.5772 23.5185Z" fill="#263238"/>
<path d="M18.0341 24.2562C18.0462 24.3784 17.9542 24.4883 17.8284 24.503C17.7026 24.5177 17.5913 24.4321 17.5792 24.31C17.5671 24.1878 17.659 24.0778 17.7824 24.0632C17.9107 24.051 18.022 24.1365 18.0341 24.2562Z" fill="#263238"/>
<path d="M18.1671 23.726C18.1404 23.7578 17.959 23.6405 17.7146 23.6576C17.4702 23.6723 17.2985 23.8116 17.2694 23.7822C17.2549 23.77 17.2815 23.7138 17.3565 23.6503C17.4291 23.5868 17.5573 23.5232 17.7098 23.5135C17.8622 23.5037 17.9953 23.5526 18.0727 23.6063C18.1501 23.6601 18.1792 23.7114 18.1671 23.726Z" fill="#263238"/>
<path d="M19.1771 25.5049C19.1747 25.4902 19.3247 25.4536 19.5715 25.4047C19.6344 25.3949 19.6925 25.3778 19.6997 25.3338C19.7118 25.2874 19.6804 25.2214 19.6465 25.1481C19.5763 24.9991 19.5062 24.8427 19.4288 24.679C19.1263 24.0095 18.9013 23.4597 18.9279 23.4475C18.9545 23.4353 19.2231 23.9679 19.5255 24.6374C19.5981 24.8036 19.6683 24.96 19.736 25.1115C19.7651 25.1823 19.811 25.2605 19.7844 25.3583C19.7699 25.4071 19.7263 25.4438 19.6876 25.4584C19.6489 25.4731 19.6126 25.4755 19.5812 25.4804C19.3344 25.5073 19.1795 25.5195 19.1771 25.5049Z" fill="#263238"/>
<path d="M18.1796 22.7512C18.1602 22.8196 17.9134 22.8049 17.6279 22.8587C17.34 22.9076 17.115 23.0077 17.0715 22.9515C17.0521 22.9247 17.0884 22.8587 17.1779 22.7854C17.2674 22.7145 17.4102 22.6412 17.582 22.6119C17.7538 22.5801 17.9134 22.5972 18.0223 22.6339C18.1312 22.6681 18.1893 22.7194 18.1796 22.7512Z" fill="#263238"/>
<path d="M20.4286 22.8072C20.3899 22.8659 20.2157 22.8194 20.0124 22.8292C19.8092 22.8341 19.6398 22.8927 19.5963 22.8365C19.5769 22.8097 19.6011 22.751 19.6713 22.6924C19.7414 22.6337 19.8624 22.5824 20.0027 22.5775C20.1431 22.5727 20.2665 22.6142 20.3415 22.6679C20.4165 22.7217 20.4455 22.7779 20.4286 22.8072Z" fill="#263238"/>
<path d="M15.6244 24.7499C15.5954 24.7401 14.5042 24.4957 14.6131 25.5977C14.722 26.6973 15.9027 26.3406 15.9003 26.3088C15.9003 26.2746 15.6244 24.7499 15.6244 24.7499Z" fill="#FFBE9D"/>
<path d="M15.4335 25.945C15.4287 25.9425 15.4166 25.9596 15.3851 25.9792C15.3561 25.9963 15.3029 26.0109 15.2424 25.9963C15.1238 25.9645 15.0077 25.791 14.9835 25.5931C14.9714 25.4929 14.9835 25.3952 15.0101 25.3145C15.0343 25.2315 15.0827 25.1704 15.1383 25.1533C15.194 25.1337 15.24 25.1655 15.2545 25.1948C15.2714 25.2241 15.2666 25.2461 15.2738 25.2486C15.2763 25.251 15.2956 25.229 15.2811 25.1826C15.2738 25.1606 15.2593 25.1362 15.2303 25.1191C15.2013 25.0995 15.1625 25.0922 15.1214 25.102C15.0391 25.1166 14.969 25.2021 14.9399 25.2926C14.9061 25.383 14.8891 25.4929 14.9037 25.6053C14.9327 25.8252 15.0658 26.0231 15.2279 26.0525C15.3053 26.0647 15.3682 26.0354 15.3996 26.006C15.4335 25.9718 15.4359 25.9474 15.4335 25.945Z" fill="#EB996E"/>
<path d="M20.7957 21.1997C20.7207 21.6371 19.8425 22.0378 19.1118 22.0183C18.4392 21.9987 18.1077 21.6615 17.619 21.4221C17.3093 21.2706 17.3093 21.2706 16.8907 21.339C16.552 21.3952 16.3754 21.7984 16.1842 22.0867C16.5471 22.8857 16.3995 23.8142 16.2471 24.6792C16.2302 24.7745 16.2084 24.8771 16.1358 24.9431C16.0124 25.0531 15.814 24.9871 15.6955 24.8747C15.5019 24.6963 15.4148 24.4324 15.3519 24.1759C15.2067 23.5919 15.1535 22.981 15.243 22.3872C15.335 21.7935 15.5769 21.2144 15.981 20.7721C16.4842 20.2175 17.2173 19.8974 17.9625 19.8583C18.7053 19.8192 19.4529 20.0513 20.0747 20.4642C20.3602 20.6548 20.6312 20.8918 20.7957 21.1997Z" fill="#263238"/>
<path d="M19.3397 26.0625C19.1534 25.9746 18.9696 25.889 18.7833 25.8011C18.7518 25.7864 18.7179 25.7718 18.6816 25.7742C18.6429 25.7791 18.6115 25.8084 18.5849 25.8402C18.4566 25.9965 18.4228 26.236 18.5244 26.4144C18.6236 26.5927 18.8583 26.6856 19.0446 26.6074C19.2405 26.5243 19.3373 26.2946 19.3518 26.0796L19.3397 26.0625Z" fill="#EB996E"/>
<path d="M19.0612 26.6465C19.0709 26.6563 18.945 26.7369 18.7345 26.6758C18.6329 26.644 18.5168 26.5659 18.4466 26.4388C18.374 26.3142 18.3474 26.1383 18.4103 25.9794C18.4394 25.9012 18.4878 25.8304 18.5458 25.7766C18.5749 25.7497 18.6039 25.7253 18.6402 25.7058C18.6765 25.6789 18.7515 25.6764 18.7854 25.6984C18.9112 25.7693 18.9983 25.8304 19.0829 25.8866C19.2451 25.9965 19.3418 26.0698 19.3322 26.0869C19.3225 26.1016 19.2112 26.0552 19.037 25.9648C18.9354 25.911 18.8386 25.8597 18.7418 25.8084C18.7176 25.8011 18.72 25.8011 18.6983 25.8133C18.6765 25.8279 18.6499 25.8475 18.6305 25.8695C18.587 25.9135 18.5507 25.9672 18.5289 26.0283C18.4805 26.1505 18.4974 26.2849 18.5507 26.3875C18.6039 26.4901 18.6862 26.5585 18.7684 26.5952C18.9329 26.666 19.0563 26.6269 19.0612 26.6465Z" fill="#263238"/>
<path d="M18.8826 24.1174C18.8706 24.1174 18.873 24.0147 18.8222 23.8437C18.7738 23.6751 18.6576 23.4283 18.406 23.2402C18.1616 23.052 17.7624 22.947 17.3777 23.0936C16.9955 23.228 16.6664 23.6385 16.6712 24.1174C16.6664 24.5963 16.9955 25.0068 17.3777 25.1412C17.7624 25.2878 18.1616 25.1827 18.406 24.9946C18.6576 24.8064 18.7762 24.5596 18.8222 24.391C18.873 24.22 18.8706 24.1174 18.8826 24.1174C18.8875 24.1174 18.8899 24.1418 18.8923 24.1907C18.8947 24.2395 18.8899 24.3128 18.8706 24.4033C18.8343 24.5841 18.7254 24.8529 18.4592 25.0654C18.2028 25.278 17.7649 25.4051 17.3366 25.2511C16.9108 25.1094 16.5382 24.6525 16.543 24.1174C16.5382 23.5823 16.9108 23.1253 17.3366 22.9836C17.7673 22.8272 18.2028 22.9543 18.4592 23.1693C18.7254 23.3819 18.8343 23.6531 18.8706 23.8315C18.8899 23.9219 18.8947 23.9952 18.8923 24.0441C18.8899 24.0929 18.8875 24.1174 18.8826 24.1174Z" fill="#263238"/>
<path d="M21.6034 24.0099C21.5913 24.0099 21.5913 23.9097 21.5453 23.7435C21.4994 23.5798 21.3857 23.3404 21.1389 23.1571C20.9018 22.9738 20.5122 22.8737 20.1372 23.0154C19.7646 23.1449 19.4452 23.5456 19.4501 24.0123C19.4452 24.479 19.767 24.8773 20.1372 25.0092C20.5122 25.151 20.9018 25.0508 21.1389 24.8675C21.3857 24.6843 21.4994 24.4448 21.5453 24.2811C21.5937 24.11 21.5913 24.0099 21.6034 24.0099C21.6082 24.0099 21.6107 24.0343 21.6131 24.0832C21.6155 24.1296 21.6107 24.2005 21.5937 24.2909C21.5599 24.4668 21.4534 24.7282 21.1945 24.9384C20.9453 25.1461 20.5195 25.2707 20.0985 25.1192C19.6823 24.9799 19.3194 24.5352 19.3243 24.0123C19.3194 23.4894 19.6823 23.0447 20.0985 22.9054C20.5171 22.7539 20.9429 22.8785 21.1945 23.0862C21.4534 23.2939 21.5599 23.5578 21.5937 23.7338C21.6131 23.8217 21.6155 23.8926 21.6131 23.9414C21.6131 23.9854 21.6082 24.0099 21.6034 24.0099Z" fill="#263238"/>
<path d="M19.3886 23.756C19.3644 23.7804 19.2555 23.7096 19.1104 23.7145C18.9652 23.7145 18.8612 23.7902 18.8345 23.7658C18.8007 23.7487 18.9023 23.5898 19.1079 23.585C19.3136 23.585 19.4201 23.7364 19.3886 23.756Z" fill="#263238"/>
<path d="M16.6764 23.9538C16.6982 23.9831 16.4852 24.1762 16.2046 24.3888C15.9239 24.6013 15.6771 24.7504 15.6578 24.7211C15.636 24.6917 15.8489 24.4987 16.1296 24.2861C16.4102 24.076 16.657 23.9269 16.6764 23.9538Z" fill="#263238"/>
<path d="M39.1328 24.0611C39.1328 24.0953 36.3334 24.1246 32.8808 24.1246C29.4282 24.1246 26.6289 24.0953 26.6289 24.0611C26.6289 24.0269 29.4282 23.9976 32.8808 23.9976C36.3334 23.9976 39.1328 24.0269 39.1328 24.0611Z" fill="#263238"/>
<path d="M33.3539 25.3829C33.3539 25.4171 31.8683 25.4464 30.0344 25.4464C28.2004 25.4464 26.7148 25.4171 26.7148 25.3829C26.7148 25.3487 28.2004 25.3193 30.0344 25.3193C31.8683 25.3193 33.3539 25.3487 33.3539 25.3829Z" fill="#263238"/>
<path d="M76.5855 33.8252C76.5855 33.8252 79.9074 35.4599 81.0761 39.6822C82.2447 43.9045 85.8158 54.9 85.8158 54.9C85.8158 54.9 87.8578 57.3264 88.078 59.1223C88.2958 60.9183 87.8603 65.2652 87.2022 66.0764C86.5465 66.8876 85.6102 66.7532 85.6102 66.7532L77.0138 65.9298L73.6289 43.0395L76.5855 33.8252Z" fill="#FF725E"/>
<path d="M48.1614 33.4244C48.1614 33.4244 42.0159 35.3719 40.4844 37.0652L45.5169 60.7105L45.437 68.1704H74.5772C74.5772 67.8015 74.8385 43.4011 74.8385 43.4011L76.5878 33.8252L66.23 31.9828L64.188 30.3628L52.664 30.9517L50.9123 32.7207L48.1614 33.4244Z" fill="#FF725E"/>
<g opacity="0.3">
<path opacity="0.3" d="M50.4905 53.937C50.401 53.7367 50.2727 53.5192 50.0598 53.4752C49.709 53.4019 49.4743 53.8222 49.3557 54.1618C48.4097 56.8692 47.1564 59.3591 45.5281 61.7097L45.4531 65.3406C47.1516 63.8966 48.8259 62.3498 49.9098 60.3926C50.9889 58.4379 51.405 55.9822 50.4905 53.937Z" fill="black"/>
</g>
<path d="M40.4799 37.0649C40.4799 37.0649 38.4548 39.8529 37.6128 41.6733C36.7708 43.4937 29.8027 58.78 29.3841 60.3584C28.9632 61.9369 27.8817 66.9093 31.0657 68.0627H37.6128L44.1841 54.6407L44.5204 39.0637L40.4799 37.0649Z" fill="#FF725E"/>
<path d="M38.0332 58.3695C38.0235 58.3793 37.888 58.24 37.5856 58.0665C37.2856 57.8955 36.8162 57.6976 36.2113 57.5632C35.9089 57.4972 35.5726 57.4435 35.2097 57.4215C34.8467 57.3995 34.4572 57.4044 34.0604 57.4972C33.2668 57.6756 32.4781 58.1838 31.8563 58.8949C31.2248 59.6059 30.8377 60.4465 30.6078 61.2382C30.3755 62.0323 30.2763 62.7775 30.2134 63.4006C30.153 64.0261 30.1288 64.5344 30.107 64.8862C30.0973 65.0499 30.0876 65.1843 30.0828 65.2919C30.0755 65.3847 30.0707 65.4336 30.0659 65.4336C30.061 65.4336 30.0586 65.3847 30.0586 65.2919C30.0586 65.1843 30.0586 65.0499 30.061 64.8862C30.0683 64.5344 30.0779 64.0237 30.1263 63.3933C30.1771 62.7653 30.2691 62.0127 30.4965 61.2039C30.7215 60.4 31.1159 59.5375 31.7619 58.8094C32.3982 58.0812 33.2112 57.5608 34.0362 57.3824C34.4475 57.2895 34.8492 57.2871 35.2169 57.3164C35.5847 57.3433 35.9258 57.4019 36.2307 57.4752C36.8428 57.6218 37.3122 57.8344 37.6098 58.0226C37.7574 58.1179 37.8662 58.2034 37.934 58.2669C38.0017 58.3304 38.0356 58.3646 38.0332 58.3695Z" fill="#263238"/>
<path d="M34.9258 55.6962C34.9258 55.6864 35.0032 55.6742 35.146 55.6596C35.2887 55.6425 35.4968 55.6376 35.7532 55.6522C36.0097 55.6645 36.3146 55.7084 36.646 55.7866C36.9751 55.8697 37.3332 55.9919 37.6888 56.1605C38.0421 56.334 38.3614 56.5368 38.6324 56.7445C38.901 56.957 39.126 57.1672 39.2978 57.3626C39.4696 57.5557 39.5978 57.7218 39.6728 57.844C39.7502 57.9662 39.7914 58.0346 39.7841 58.0395C39.7647 58.0541 39.5881 57.7878 39.2325 57.4237C39.0558 57.2405 38.8284 57.0401 38.5623 56.8397C38.2913 56.6418 37.9792 56.4464 37.6332 56.2778C37.2848 56.1116 36.9388 55.9919 36.617 55.9039C36.2928 55.8208 35.9976 55.7695 35.746 55.7475C35.2427 55.6938 34.9258 55.7207 34.9258 55.6962Z" fill="#263238"/>
<path d="M40.8472 54.961C40.8448 54.9707 40.7383 54.961 40.5447 54.9365C40.3512 54.9121 40.0705 54.8828 39.7245 54.8559C39.0326 54.8022 38.0696 54.7899 37.0147 54.917C35.9623 55.0465 35.0283 55.2884 34.3678 55.5034C34.0363 55.6109 33.7702 55.7062 33.5887 55.7771C33.4073 55.8455 33.3032 55.8797 33.3008 55.8724C33.2984 55.8651 33.3928 55.8137 33.5718 55.7307C33.7484 55.6451 34.0097 55.5376 34.3412 55.4179C34.9993 55.1784 35.9381 54.9194 37.0026 54.7899C38.0648 54.6629 39.0398 54.6898 39.7342 54.7655C40.0826 54.8021 40.3633 54.8461 40.5544 54.8852C40.7456 54.9268 40.8496 54.9536 40.8472 54.961Z" fill="#263238"/>
<path d="M59.4999 41.9007C59.4975 41.9032 59.4757 41.8763 59.4321 41.8201C59.3862 41.7566 59.3257 41.6759 59.2531 41.5782C59.0934 41.3534 58.8708 41.0431 58.595 40.657C58.0289 39.8507 57.2425 38.7291 56.3134 37.4072L56.4151 37.3925C56.0618 38.4383 55.6723 39.5941 55.2634 40.8085L55.2368 40.8842L55.1715 40.8403C55.1279 40.8134 55.0819 40.7816 55.036 40.7523C54.494 40.4053 54.0149 39.9875 53.6109 39.5354C53.2068 39.081 52.8705 38.5972 52.5923 38.1134C52.0358 37.1433 51.6995 36.1879 51.4721 35.3791C51.2446 34.5679 51.1261 33.8935 51.0487 33.4317C51.01 33.2093 50.9809 33.0334 50.9567 32.899C50.9446 32.8379 50.9325 32.7939 50.9253 32.7622C50.9132 32.7353 50.9083 32.7182 50.9108 32.7182C50.9374 32.706 51.0075 32.9625 51.0971 33.4244C51.1914 33.8837 51.3221 34.5532 51.5592 35.3571C51.7963 36.1586 52.1374 37.1042 52.6939 38.0572C52.9722 38.5336 53.3036 39.0077 53.7028 39.4548C54.1045 39.8971 54.5738 40.3076 55.1037 40.6472C55.1497 40.6765 55.1957 40.7059 55.2368 40.7327L55.1448 40.767C55.5586 39.5526 55.9505 38.3992 56.3062 37.3559L56.3425 37.2459L56.4078 37.3412C57.3199 38.6729 58.0942 39.8042 58.6507 40.6179C58.9168 41.0113 59.1273 41.329 59.2821 41.5586C59.3499 41.6613 59.4031 41.7443 59.4467 41.8103C59.483 41.8665 59.5023 41.8983 59.4999 41.9007Z" fill="#263238"/>
<g opacity="0.3">
<path opacity="0.3" d="M67.0834 53.187C66.8124 55.9212 67.41 58.7361 68.7673 61.116C70.1222 63.4984 72.111 65.6193 74.5862 66.7604C74.666 64.3341 74.5499 61.4752 74.6297 59.0489L67.0834 53.187Z" fill="black"/>
</g>
<path d="M66.8129 49.9931C66.8129 49.9931 65.7556 50.2888 66.5492 52.4805C67.3428 54.6699 67.6065 54.5379 68.1364 56.588C68.6662 58.6356 69.2832 60.5073 70.2099 61.6655C71.1365 62.8237 74.577 65.1841 74.577 65.1841L77.6619 62.2397C77.6619 62.2397 77.1538 60.0479 77.2747 58.5599C77.3957 57.0718 77.7054 53.4188 77.6619 52.7958C77.6183 52.1727 76.9554 50.6577 76.9554 50.6577V49.6217L75.3682 44.6884C75.3682 44.6884 74.4851 44.2876 74.1778 45.7122L73.6479 44.1997C73.6479 44.1997 72.8108 44.0653 72.5906 45.8026C72.3705 47.5399 72.7673 49.9442 72.7673 49.9442L72.3269 52.9741L71.6664 55.0217L71.093 55.1097C71.093 55.1097 70.2292 54.8727 69.7574 53.2307C69.2832 51.596 68.0033 49.6364 66.8129 49.9931Z" fill="#FFBE9D"/>
<path d="M76.6272 57.7388C76.6248 57.7388 76.6199 57.6997 76.6127 57.6264C76.6078 57.5409 76.6006 57.4334 76.5909 57.299C76.5739 57.0009 76.5522 56.588 76.5256 56.0724C76.4772 55.0095 76.4118 53.5288 76.3344 51.8012L76.3489 51.8379C76.2062 51.6668 75.9546 51.6155 75.7247 51.6742C75.49 51.7304 75.282 51.877 75.1513 52.0969C74.8827 52.5343 74.8658 53.106 74.7835 53.6583C74.6166 54.9069 74.4569 56.0944 74.3117 57.1793C74.2392 57.7193 74.1617 58.2349 74.0553 58.7113C73.9537 59.1878 73.8109 59.6227 73.673 60.0112C73.5375 60.3998 73.4165 60.7516 73.3415 61.0693C73.2665 61.3869 73.2351 61.6655 73.2423 61.8951C73.252 62.3545 73.3851 62.5891 73.3633 62.594C73.3585 62.5964 73.3343 62.5378 73.2883 62.4229C73.252 62.3056 73.2012 62.1297 73.1915 61.8976C73.177 61.6655 73.2012 61.3771 73.2714 61.0546C73.3415 60.7321 73.4577 60.3753 73.5883 59.9844C73.7214 59.5934 73.8569 59.1658 73.9537 58.6918C74.0529 58.2202 74.1254 57.7071 74.1956 57.1671C74.3384 56.0822 74.4932 54.8946 74.6577 53.646C74.6964 53.3675 74.7255 53.0938 74.7739 52.8177C74.8223 52.544 74.8973 52.2704 75.0473 52.0358C75.1876 51.7963 75.4344 51.6204 75.6957 51.5593C75.9546 51.4934 76.2618 51.552 76.4385 51.767L76.4506 51.7841V51.8037C76.5086 53.5312 76.5594 55.0119 76.5957 56.0773C76.6078 56.5928 76.6199 57.0058 76.6272 57.3063C76.6296 57.4407 76.6296 57.5482 76.6296 57.6338C76.632 57.6997 76.6296 57.7388 76.6272 57.7388Z" fill="#EB996E"/>
<path d="M74.9364 52.1261C74.9292 52.1286 74.8808 52.0308 74.8058 51.8476C74.7332 51.6643 74.6364 51.3931 74.5469 51.0486C74.4574 50.7065 74.3727 50.2887 74.3243 49.822C74.3001 49.5874 74.2832 49.3381 74.3122 49.0791C74.3388 48.8201 74.4138 48.5465 74.5783 48.3168C74.7187 48.1164 74.9171 47.9551 75.1421 47.8892L75.1905 47.8745L75.2146 47.9185C75.6623 48.7151 76.0494 49.4188 76.3228 49.9246C76.4486 50.1616 76.5526 50.3595 76.6397 50.5232C76.7123 50.6649 76.7486 50.7431 76.7413 50.748C76.7341 50.7529 76.6857 50.6796 76.601 50.5452C76.5067 50.3888 76.3905 50.1958 76.2526 49.9661C75.9599 49.4701 75.5582 48.7761 75.1058 47.982L75.1784 48.0113C74.9848 48.07 74.8082 48.2093 74.6824 48.3925C74.5348 48.6027 74.4622 48.8519 74.4356 49.0962C74.409 49.343 74.4211 49.5849 74.4404 49.8146C74.4816 50.2764 74.5541 50.6894 74.634 51.0315C74.7114 51.3735 74.7937 51.6472 74.8517 51.8354C74.9122 52.0186 74.9461 52.1237 74.9364 52.1261Z" fill="#EB996E"/>
<path d="M74.2016 52.5271C74.1919 52.5271 74.1822 52.4269 74.1725 52.2437C74.1653 52.0335 74.1532 51.7745 74.1411 51.4691C74.1193 50.8142 74.1 49.9102 74.0854 48.9108C74.0782 47.9114 74.0395 47.0049 74.1241 46.3476C74.1653 46.0202 74.2306 45.7587 74.2887 45.5852C74.3467 45.4093 74.3951 45.3213 74.4024 45.3238C74.4242 45.3311 74.2669 45.7098 74.2112 46.3598C74.1508 47.0073 74.2016 47.9114 74.2088 48.9108C74.2233 49.9102 74.2282 50.8142 74.2282 51.4691C74.2258 51.7745 74.2209 52.0335 74.2185 52.2461C74.2185 52.4269 74.2113 52.5271 74.2016 52.5271Z" fill="#EB996E"/>
<path d="M71.5909 60.7397C71.574 60.725 71.7651 60.4953 72.0046 60.0775C72.1256 59.8698 72.249 59.6108 72.3627 59.3176C72.4716 59.0195 72.5708 58.6847 72.6385 58.3255C72.7014 57.9639 72.7232 57.6169 72.7232 57.2993C72.7184 56.9816 72.6917 56.6957 72.6506 56.4612C72.5708 55.9871 72.4692 55.7037 72.4909 55.6964C72.4982 55.6939 72.5296 55.7623 72.578 55.8894C72.6288 56.0164 72.6845 56.207 72.7377 56.4441C72.7909 56.6835 72.8272 56.9743 72.8393 57.2968C72.8466 57.6218 72.8248 57.9785 72.7619 58.3475C72.6942 58.7165 72.5901 59.0586 72.4716 59.3591C72.3482 59.6572 72.2127 59.9187 72.0796 60.1239C71.949 60.3292 71.8304 60.488 71.7385 60.5882C71.6514 60.6932 71.5981 60.747 71.5909 60.7397Z" fill="#EB996E"/>
<path d="M77.0091 59.2075L79.6875 60.1458C79.6875 60.1458 82.2449 58.8092 84.0087 60.1458C85.7725 61.4824 87.304 65.0034 86.8201 66.4279C86.8201 66.4279 85.6031 67.9453 84.6765 68.1677C83.7498 68.39 80.1496 67.5104 78.652 67.1903C77.1495 66.8702 74.5703 65.1769 74.5703 65.1769L77.0091 59.2075Z" fill="#FFBE9D"/>
<path d="M77.3397 63.1951C77.33 63.1951 77.3203 63.1096 77.3106 62.9557C77.3009 62.7724 77.2864 62.5549 77.2719 62.3033C77.2429 61.751 77.2066 60.9887 77.1945 60.1432C77.1824 59.2978 77.2066 58.533 77.2574 57.9808C77.2816 57.7047 77.3106 57.4823 77.3372 57.3284C77.3639 57.1744 77.3832 57.0914 77.3929 57.0938C77.4123 57.0962 77.3711 57.4359 77.3445 57.9857C77.3179 58.5354 77.3082 59.2978 77.3203 60.1408C77.3348 60.9667 77.3493 61.7144 77.359 62.3008C77.3614 62.5769 77.3614 62.8017 77.3566 62.9557C77.3566 63.1096 77.3493 63.1951 77.3397 63.1951Z" fill="#EB996E"/>
<path d="M86.1714 60.0407C86.1521 60.0602 85.8763 59.6742 85.2811 59.2295C84.6931 58.7848 83.7399 58.3107 82.6124 58.2472C81.4825 58.1861 80.4832 58.5502 79.8518 58.9265C79.2106 59.3028 78.8961 59.6546 78.8791 59.6351C78.8743 59.6302 78.9493 59.5398 79.0993 59.3932C79.2493 59.2466 79.4864 59.0511 79.8058 58.8507C80.4373 58.4476 81.4583 58.059 82.6196 58.1226C83.781 58.1886 84.7536 58.6895 85.3367 59.1586C85.6319 59.3932 85.8472 59.6155 85.9803 59.7768C86.1134 59.9381 86.1787 60.0358 86.1714 60.0407Z" fill="#263238"/>
<path d="M85.8283 57.7853C85.8114 57.8122 85.4533 57.4457 84.7129 57.1647C83.9847 56.8764 82.8548 56.7444 81.6958 57.0743C81.1176 57.238 80.5877 57.4701 80.1353 57.7291C79.6828 57.9906 79.3054 58.2765 79.0054 58.5355C78.7054 58.7945 78.4755 59.0217 78.3183 59.1781C78.161 59.3369 78.0739 59.4225 78.0666 59.4176C78.0618 59.4127 78.1368 59.3149 78.2844 59.1439C78.432 58.9753 78.6521 58.7383 78.9497 58.4671C79.2449 58.1958 79.6224 57.8977 80.0796 57.6265C80.5369 57.3577 81.074 57.1158 81.6644 56.9497C82.8524 56.6125 84.0113 56.764 84.7468 57.0792C85.1194 57.2331 85.3952 57.4115 85.5719 57.5483C85.6638 57.6143 85.7243 57.6778 85.7678 57.7169C85.8114 57.7584 85.8307 57.7829 85.8283 57.7853Z" fill="#263238"/>
<path d="M85.8488 55.8309C85.8416 55.8554 85.3746 55.7112 84.5955 55.6061C84.206 55.5499 83.739 55.5182 83.2213 55.5182C82.7035 55.5255 82.1349 55.5695 81.5446 55.6697C80.9566 55.7772 80.4074 55.9336 79.9163 56.1046C79.43 56.283 79.0017 56.4736 78.6557 56.6617C77.9613 57.0307 77.5694 57.3263 77.5549 57.3068C77.55 57.2995 77.6444 57.2237 77.8234 57.0893C77.9105 57.0209 78.0218 56.9427 78.1549 56.8596C78.288 56.7766 78.438 56.6739 78.6122 56.5835C78.9557 56.3856 79.3864 56.1852 79.8751 55.9971C80.3687 55.8187 80.9252 55.6574 81.5204 55.5475C82.118 55.4449 82.6938 55.4033 83.2189 55.4033C83.7439 55.4107 84.2157 55.4522 84.6052 55.5206C84.8012 55.545 84.9754 55.5915 85.1302 55.6232C85.2851 55.655 85.4157 55.6917 85.5198 55.7234C85.7351 55.7821 85.8513 55.8212 85.8488 55.8309Z" fill="#263238"/>
<path d="M65.3244 31.9019C65.3244 31.9019 65.4478 32.1364 65.5107 32.6202C65.5761 33.1016 65.5664 33.8249 65.4091 34.7192C65.3293 35.1663 65.2228 35.6575 65.0631 36.1828C64.8962 36.7081 64.6446 37.2457 64.3591 37.8077C63.7832 38.9317 63.055 40.1559 62.2154 41.4631L62.1162 41.617V41.4338C62.1138 40.5712 62.1138 39.6647 62.1114 38.7216L62.2057 38.768C61.4847 39.3544 60.7274 39.9726 59.9459 40.6103L59.9653 40.581C59.4427 42.2572 59.0967 44.124 58.9612 46.0666C58.741 49.0403 58.9177 51.8845 59.058 54.4648C59.1766 57.0475 59.254 59.3761 59.3338 61.3284C59.4112 63.2832 59.4814 64.8617 59.5395 65.9539C59.5709 66.4939 59.5951 66.9166 59.6121 67.2098C59.6217 67.3491 59.629 67.4566 59.6338 67.5373C59.6387 67.6106 59.6363 67.6497 59.6363 67.6497C59.6363 67.6497 59.629 67.613 59.6193 67.5397C59.6121 67.4615 59.6 67.3516 59.5854 67.2147C59.5588 66.9288 59.525 66.5037 59.4887 65.9588C59.4161 64.8666 59.3314 63.2881 59.2443 61.3333C59.1572 59.3786 59.0556 57.0524 58.9394 54.4721C58.7943 51.8942 58.6128 49.0427 58.833 46.0593C58.9709 44.1094 59.3169 42.2328 59.8467 40.5468L59.8516 40.5297L59.8661 40.5175C60.6476 39.8822 61.4073 39.2664 62.1283 38.68L62.2227 38.6043V38.7264C62.2203 39.6672 62.2203 40.5737 62.2178 41.4387L62.1186 41.4094C63.7808 38.8071 65.1333 36.5444 65.3414 34.7143C65.5083 33.8273 65.5277 33.1114 65.472 32.63C65.4478 32.3881 65.4019 32.2097 65.3728 32.0876C65.339 31.9654 65.3244 31.9019 65.3244 31.9019Z" fill="#263238"/>
<path d="M60.9844 63.4226L60.8973 63.4202C60.5465 63.4299 60.2344 63.7525 60.2344 64.1068C60.2344 64.4611 60.5441 64.7861 60.8925 64.7983C61.2433 64.8105 61.5748 64.5075 61.5965 64.1556C61.6232 63.8013 61.3328 63.4568 60.9844 63.4226Z" fill="white"/>
<path d="M60.9883 54.0054L60.9012 54.0029C60.5504 54.0127 60.2383 54.3352 60.2383 54.6895C60.2383 55.0438 60.548 55.3688 60.8964 55.381C61.2472 55.3933 61.5787 55.0903 61.6005 54.7384C61.6271 54.3841 61.3367 54.0396 60.9883 54.0054Z" fill="white"/>
<path d="M60.8988 45.5802C61.2496 45.5925 61.5811 45.2895 61.6029 44.9376C61.6271 44.5858 61.3367 44.2412 60.9883 44.207L60.9012 44.2046C60.5504 44.2144 60.2383 44.5369 60.2383 44.8912C60.2383 45.243 60.548 45.568 60.8988 45.5802Z" fill="white"/>
<path d="M50.4545 20.8673C49.6053 19.9192 48.7512 18.959 48.1318 17.8448C47.5124 16.7305 47.1446 15.4282 47.3503 14.1673C47.4689 13.4294 47.781 12.7282 47.8294 11.9829C47.8971 10.9566 47.4689 9.88397 47.8294 8.92369C48.3931 7.42096 50.3964 7.18883 51.611 6.15036C52.557 5.34158 53.0167 4.02944 54.0595 3.34772C54.9692 2.75396 56.1378 2.76617 57.2097 2.92011C58.2815 3.07405 59.3606 3.34772 60.4348 3.20111C61.1994 3.09604 61.9204 2.78572 62.6704 2.59758C63.4205 2.40943 64.2552 2.36056 64.923 2.75151C65.5907 3.14247 65.9658 4.1003 65.5278 4.74293C66.7714 4.16383 68.3514 5.14366 68.6925 6.48267C69.0337 7.82169 68.3514 9.27066 67.2965 10.1527C66.2416 11.0373 64.8794 11.4478 63.5342 11.7043C59.7235 12.43 55.591 12.0195 52.3078 9.93772" fill="#263238"/>
<path d="M63.8689 33.8056C63.6826 32.3493 63.5302 31.1349 63.5205 30.9834C63.5205 30.9834 68.3401 29.8887 68.074 24.9676C67.9458 22.5901 67.2852 17.7105 66.6392 13.305C65.9448 8.57442 61.7616 5.17801 57.0363 5.49566L56.567 5.52743C51.5199 6.16761 49.2408 10.8566 50.015 15.9317L52.7369 32.9552C52.7369 32.9552 53.8983 36.7206 56.3855 37.373L59.5211 41.8983L60.0389 39.9509L62.3761 37.8959C62.3761 37.8959 62.9132 37.3095 63.5278 36.1635C64.0359 35.2252 63.9294 34.2625 63.8689 33.8056Z" fill="#FFBE9D"/>
<path d="M63.5088 30.9099C63.5088 30.9099 60.4481 31.3717 57.0391 29.5171C57.0391 29.5171 58.7738 32.955 63.6031 32.1829L63.5088 30.9099Z" fill="#EB996E"/>
<path d="M65.0551 17.5347C65.0938 17.9036 64.8131 18.2408 64.4309 18.2897C64.0486 18.3361 63.7099 18.0747 63.6712 17.7057C63.6349 17.3368 63.9131 16.9971 64.2929 16.9507C64.6776 16.9018 65.0188 17.1633 65.0551 17.5347Z" fill="#263238"/>
<path d="M65.7372 15.79C65.6574 15.8877 65.1033 15.5285 64.3557 15.5823C63.6081 15.6238 63.0831 16.049 62.996 15.9634C62.9524 15.9243 63.0298 15.7533 63.2573 15.5627C63.4823 15.3721 63.8718 15.1742 64.3388 15.1449C64.8057 15.1156 65.2098 15.2622 65.4469 15.4259C65.6889 15.5847 65.776 15.746 65.7372 15.79Z" fill="#263238"/>
<path d="M57.977 18.0454C58.0157 18.4144 57.735 18.7516 57.3527 18.8005C56.9705 18.8469 56.6317 18.5854 56.593 18.2165C56.5567 17.8475 56.835 17.5079 57.2172 17.4614C57.5995 17.4126 57.9407 17.674 57.977 18.0454Z" fill="#263238"/>
<path d="M58.4052 16.4276C58.3254 16.5254 57.7713 16.1662 57.0237 16.2199C56.2761 16.2615 55.751 16.6866 55.6639 16.6011C55.6204 16.562 55.6978 16.391 55.9252 16.2004C56.1478 16.0098 56.5398 15.8119 57.0043 15.7826C57.4713 15.7532 57.8753 15.8999 58.1125 16.0636C58.3544 16.2224 58.4439 16.3837 58.4052 16.4276Z" fill="#263238"/>
<path d="M61.4813 21.8472C61.474 21.8056 61.9337 21.6908 62.6814 21.5442C62.8701 21.5124 63.0491 21.4611 63.0733 21.3267C63.1096 21.185 63.0152 20.9822 62.9088 20.7623C62.6983 20.3078 62.4781 19.8313 62.2459 19.3304C61.3216 17.2901 60.6393 15.609 60.7216 15.5724C60.8038 15.5357 61.6192 17.1582 62.541 19.1985C62.7636 19.7018 62.9765 20.1807 63.1798 20.6401C63.2669 20.8551 63.4072 21.0946 63.3298 21.3903C63.2887 21.5369 63.1556 21.6517 63.0346 21.6932C62.9136 21.7397 62.8072 21.7494 62.7128 21.7617C61.9555 21.8545 61.4861 21.8912 61.4813 21.8472Z" fill="#263238"/>
<path d="M58.3691 13.4519C58.3086 13.662 57.5562 13.6156 56.6852 13.7818C55.8117 13.9308 55.1198 14.2387 54.9915 14.0603C54.9335 13.9748 55.0448 13.7744 55.3182 13.5545C55.5891 13.3371 56.0295 13.1171 56.5521 13.0219C57.0747 12.929 57.5634 12.9803 57.8925 13.0903C58.2215 13.2027 58.3957 13.3517 58.3691 13.4519Z" fill="#263238"/>
<path d="M65.3036 13.6204C65.1826 13.8012 64.6552 13.657 64.0358 13.6912C63.414 13.7035 62.8986 13.8843 62.7656 13.7132C62.7075 13.6301 62.7777 13.4518 62.9978 13.2734C63.2132 13.0975 63.5834 12.9386 64.0092 12.9215C64.435 12.9069 64.8149 13.0364 65.0423 13.1977C65.2746 13.3614 65.3568 13.5324 65.3036 13.6204Z" fill="#263238"/>
<path d="M50.6483 19.5478C50.5636 19.5161 47.2368 18.7733 47.5659 22.1306C47.8949 25.4855 51.4951 24.3932 51.4927 24.2955C51.4878 24.1978 50.6483 19.5478 50.6483 19.5478Z" fill="#FFBE9D"/>
<path d="M50.0038 23.1936C49.9893 23.1838 49.9506 23.24 49.8562 23.2962C49.7643 23.35 49.6046 23.3964 49.4256 23.3475C49.0626 23.2522 48.7118 22.7196 48.6368 22.116C48.5981 21.8106 48.6344 21.515 48.7167 21.2633C48.7941 21.0067 48.9344 20.821 49.1086 20.7721C49.2804 20.7135 49.4159 20.8088 49.4667 20.8992C49.5199 20.9896 49.5054 21.058 49.5248 21.0605C49.5344 21.0678 49.5901 20.9969 49.5514 20.8601C49.532 20.7941 49.4836 20.7184 49.399 20.6622C49.3118 20.6035 49.1933 20.584 49.0699 20.6084C48.8159 20.6524 48.6078 20.9139 48.5158 21.19C48.4094 21.4685 48.3634 21.8033 48.407 22.1454C48.4941 22.8198 48.8981 23.4184 49.3941 23.5088C49.6336 23.5479 49.8224 23.4575 49.9143 23.3671C50.0062 23.2742 50.0159 23.1985 50.0038 23.1936Z" fill="#EB996E"/>
<path d="M66.3772 8.7211C66.1498 10.0577 63.4666 11.2794 61.2431 11.2159C59.1938 11.1548 58.18 10.1285 56.6897 9.39794C55.7461 8.93612 55.7461 8.93612 54.4686 9.14626C53.433 9.3173 52.8983 10.5488 52.3152 11.4309C53.4209 13.867 52.9733 16.699 52.5064 19.3379C52.4556 19.6287 52.3902 19.9439 52.1701 20.1394C51.7975 20.4717 51.1902 20.2738 50.8249 19.9341C50.2369 19.3917 49.9684 18.5829 49.7772 17.8034C49.3393 16.0246 49.1699 14.1602 49.4482 12.3472C49.7264 10.5341 50.4692 8.77486 51.6959 7.42118C53.2274 5.73031 55.4678 4.75537 57.7349 4.63808C60.0019 4.5208 62.2786 5.2294 64.1755 6.48534C65.0562 7.06199 65.8812 7.78281 66.3772 8.7211Z" fill="#263238"/>
<path d="M61.9603 23.5479C61.3965 23.2816 60.8304 23.0153 60.2666 22.7514C60.1699 22.7049 60.0658 22.6585 59.9594 22.6732C59.8384 22.6903 59.744 22.7807 59.6666 22.8735C59.2747 23.3549 59.1755 24.0782 59.4779 24.6206C59.7827 25.1631 60.4965 25.4489 61.0675 25.2095C61.6675 24.9578 61.9603 24.2541 62.0062 23.5992L61.9603 23.5479Z" fill="#EB996E"/>
<path d="M61.1261 25.3313C61.131 25.346 61.0487 25.3948 60.8794 25.4315C60.7124 25.4632 60.4511 25.4779 60.1511 25.3777C59.8535 25.2824 59.5172 25.0479 59.3091 24.6716C59.0986 24.305 59.0212 23.7895 59.2051 23.3228C59.2922 23.0906 59.4301 22.8854 59.597 22.7241C59.6817 22.6435 59.7712 22.5751 59.8729 22.514C59.9261 22.4847 59.9914 22.4553 60.0688 22.4505C60.1438 22.4456 60.2116 22.4651 60.2648 22.4896C60.3761 22.5384 60.4463 22.5922 60.5285 22.6411C60.6084 22.6899 60.6834 22.7388 60.7584 22.7852C60.9035 22.8781 61.0415 22.9636 61.1697 23.0467C61.6729 23.3692 61.973 23.5818 61.956 23.6135C61.9391 23.6429 61.6052 23.484 61.0802 23.203C60.9471 23.1297 60.8043 23.0515 60.6519 22.9685C60.5745 22.9245 60.4947 22.8805 60.4148 22.8365C60.335 22.7925 60.2455 22.7363 60.1753 22.7095C60.0979 22.6826 60.064 22.685 59.989 22.7266C59.914 22.773 59.8341 22.8365 59.7664 22.9049C59.6261 23.0442 59.5124 23.2177 59.4373 23.4156C59.2825 23.809 59.3381 24.2366 59.5099 24.5616C59.6793 24.889 59.9527 25.1041 60.2092 25.2116C60.468 25.3215 60.7052 25.3362 60.8648 25.3362C61.0294 25.3289 61.1189 25.3117 61.1261 25.3313Z" fill="#263238"/>
<path d="M60.5942 17.6175C60.5749 17.6199 60.5966 17.3047 60.4612 16.7671C60.3281 16.2418 59.9797 15.4672 59.1958 14.8661C58.8062 14.5729 58.3175 14.3261 57.7538 14.2259C57.1949 14.1306 56.561 14.1478 55.9609 14.3799C55.6585 14.4874 55.3657 14.6462 55.0996 14.849C54.8286 15.0469 54.5818 15.2937 54.3786 15.5796C53.96 16.1441 53.7229 16.8673 53.7157 17.6126C53.7229 18.3578 53.9576 19.0835 54.3786 19.648C54.5818 19.9339 54.8286 20.1806 55.0996 20.381C55.3682 20.5838 55.6585 20.7451 55.9609 20.8502C56.561 21.0823 57.1949 21.0994 57.7538 21.0041C58.3175 20.9039 58.8062 20.6571 59.1958 20.3639C59.9797 19.7653 60.3281 18.9907 60.4612 18.4629C60.5966 17.9302 60.5749 17.6175 60.5942 17.6175C60.5966 17.6175 60.5966 17.637 60.5966 17.6737C60.5966 17.7201 60.5942 17.7738 60.5942 17.8398C60.5942 17.9131 60.5918 18.0035 60.5725 18.111C60.5579 18.2186 60.5458 18.3407 60.5071 18.4776C60.4515 18.7512 60.3281 19.0762 60.1321 19.4232C59.9337 19.7677 59.6458 20.1293 59.249 20.4372C58.8546 20.7426 58.3538 21.0016 57.7731 21.1092C57.1973 21.2118 56.544 21.1971 55.9222 20.9626C55.6077 20.855 55.3053 20.6889 55.027 20.4812C54.7464 20.2759 54.4899 20.0218 54.2794 19.7262C53.8439 19.1422 53.5971 18.392 53.5898 17.6175C53.5971 16.8429 53.8439 16.0927 54.2794 15.5088C54.4899 15.2131 54.7464 14.959 55.027 14.7537C55.3053 14.546 55.6077 14.3799 55.9222 14.2724C56.544 14.0354 57.1973 14.0207 57.7731 14.1258C58.3538 14.2333 58.8546 14.4947 59.249 14.7977C59.6458 15.1056 59.9337 15.4672 60.1321 15.8117C60.3281 16.1587 60.4515 16.4837 60.5071 16.7574C60.5458 16.8918 60.5579 17.0164 60.5725 17.1239C60.5894 17.2314 60.5942 17.3218 60.5942 17.3951C60.5942 17.4611 60.5966 17.5173 60.5966 17.5613C60.5966 17.5979 60.5966 17.6175 60.5942 17.6175Z" fill="#263238"/>
<path d="M68.8752 17.2899C68.8558 17.2923 68.8776 16.9844 68.7445 16.4615C68.6139 15.9484 68.2752 15.1934 67.5106 14.6118C67.1332 14.3259 66.6565 14.084 66.1073 13.9887C65.5629 13.8959 64.946 13.913 64.3604 14.1402C64.0653 14.2429 63.7822 14.3992 63.5209 14.5972C63.2572 14.7902 63.0176 15.0321 62.8192 15.3107C62.4104 15.8604 62.1805 16.5642 62.1732 17.2923C62.1805 18.0205 62.4103 18.7242 62.8168 19.2739C63.0152 19.5525 63.2547 19.792 63.5185 19.9874C63.7798 20.1854 64.0628 20.3417 64.358 20.4444C64.9435 20.6692 65.5581 20.6887 66.1049 20.5934C66.6541 20.4957 67.1307 20.2538 67.5082 19.9703C68.2727 19.3863 68.6115 18.6338 68.7397 18.1206C68.8776 17.5928 68.8558 17.2874 68.8752 17.2899C68.88 17.2899 68.88 17.3656 68.8776 17.5073C68.8776 17.5782 68.8752 17.6686 68.8583 17.7712C68.8437 17.8763 68.8316 17.996 68.7953 18.128C68.6768 18.6509 68.3453 19.4303 67.5687 20.0388C67.184 20.3369 66.6952 20.591 66.1291 20.6936C65.5678 20.7938 64.9314 20.7791 64.3241 20.5494C64.0193 20.4444 63.7241 20.2831 63.4531 20.0778C63.1797 19.8775 62.9305 19.6307 62.7249 19.3424C62.2991 18.773 62.0595 18.0424 62.0547 17.2874C62.0619 16.5324 62.3015 15.8018 62.7273 15.2325C62.933 14.9441 63.1822 14.6949 63.4556 14.497C63.7265 14.2942 64.0217 14.1329 64.3266 14.0278C64.9339 13.7982 65.5702 13.7835 66.1315 13.8837C66.6977 13.9887 67.1864 14.2429 67.5711 14.5385C68.3477 15.1469 68.6792 15.924 68.7978 16.4493C68.8341 16.5813 68.8486 16.701 68.8607 16.8061C68.8776 16.9087 68.8824 16.9991 68.88 17.0699C68.88 17.2141 68.88 17.2899 68.8752 17.2899Z" fill="#263238"/>
<path d="M62.1123 16.5157C62.0978 16.5303 62.0179 16.4619 61.8728 16.391C61.7276 16.3202 61.5098 16.2518 61.263 16.2566C61.0187 16.2591 60.8009 16.3373 60.6582 16.413C60.513 16.4888 60.438 16.5596 60.4235 16.5474C60.4114 16.5376 60.467 16.4399 60.6122 16.3373C60.7549 16.2347 60.9872 16.1345 61.2606 16.1296C61.5316 16.1247 61.7687 16.2151 61.9163 16.3128C62.0639 16.4106 62.1244 16.5059 62.1123 16.5157Z" fill="#263238"/>
<path d="M53.8595 17.1213C53.8813 17.1507 53.2014 17.698 52.3425 18.3431C51.4836 18.9906 50.7723 19.4915 50.7505 19.4646C50.7287 19.4353 51.4086 18.888 52.2675 18.2429C53.1264 17.5929 53.8402 17.092 53.8595 17.1213Z" fill="#263238"/>
<g opacity="0.3">
<path opacity="0.3" d="M50.9952 33.0234C50.6589 36.3392 51.9073 39.8407 54.5397 41.8492C54.7454 42.008 55.0067 42.162 55.2486 42.074C55.418 42.0129 55.5269 41.8492 55.6164 41.6904C56.3664 40.3782 56.618 38.9293 56.4027 37.429C55.9866 38.5383 55.6285 39.6257 55.2075 40.7863C52.9114 39.3813 51.4815 36.3905 50.9952 33.0234Z" fill="black"/>
</g>
<path opacity="0.3" d="M59.9062 40.5642L61.8394 39.8507L62.1588 43.1518C62.1588 43.1518 64.2444 39.3131 65.1081 37.5612C65.9719 35.8092 65.5267 32.7183 65.5267 32.7183C65.5267 32.7183 65.8364 35.4109 63.746 38.844L62.1685 41.4341V38.7218L59.9062 40.5642Z" fill="black"/>
<g opacity="0.3">
<path opacity="0.3" d="M37.4243 57.3406C36.563 56.9301 35.571 56.8739 34.625 56.9863C33.6258 57.1036 32.6217 57.4139 31.8378 58.0516C31.0538 58.6894 30.524 59.6961 30.6208 60.7077L30.7175 60.7223C31.3926 58.8799 32.733 57.5385 34.4629 57.3748C36.1928 57.2135 37.8792 57.9905 39.0672 59.2709C38.951 58.3131 38.2881 57.7511 37.4243 57.3406Z" fill="black"/>
</g>
<g opacity="0.3">
<path opacity="0.3" d="M86.295 59.2247C85.6466 58.5185 84.7369 58.0909 83.7981 57.9248C82.1505 57.634 80.3818 58.152 79.1406 59.2858L79.5084 58.9828C80.4447 58.4281 81.5238 58.1007 82.6102 58.1325C83.6941 58.1642 84.7804 58.5698 85.5667 59.3249C86.2902 60.0213 86.7233 60.9595 87.137 61.8758C87.3015 60.9278 86.9434 59.9308 86.295 59.2247Z" fill="black"/>
</g>
<path d="M73.8409 43.8943C73.8336 43.8919 73.8651 43.7966 73.928 43.628C74.003 43.4349 74.0949 43.1979 74.2038 42.9169C74.4385 42.3183 74.7579 41.49 75.099 40.5712C75.4377 39.65 75.7305 38.8119 75.941 38.2035C76.0402 37.9201 76.1249 37.6806 76.1926 37.4851C76.2531 37.3165 76.2918 37.2237 76.2991 37.2261C76.3063 37.2286 76.2846 37.3263 76.2386 37.4998C76.1926 37.6733 76.12 37.925 76.0257 38.2328C75.837 38.8486 75.5563 39.694 75.2176 40.6152C74.8788 41.5364 74.5425 42.3598 74.2885 42.9511C74.1602 43.2468 74.0538 43.4838 73.9764 43.6475C73.8965 43.8088 73.8481 43.8968 73.8409 43.8943Z" fill="#263238"/>
<path d="M43.3373 44.1338C43.3035 44.1411 43.0397 42.978 42.7494 41.5364C42.4591 40.0948 42.251 38.9219 42.2849 38.9146C42.3187 38.9073 42.5825 40.0703 42.8728 41.512C43.1631 42.9536 43.3712 44.1265 43.3373 44.1338Z" fill="#263238"/>
<path d="M42.8816 58.6703C42.959 58.7094 41.9961 51.0564 41.9961 51.0564C41.9961 51.0564 42.6034 45.2483 42.9445 44.9796L42.9542 42.9295C42.9542 42.9295 43.8954 42.3528 44.147 43.2838C44.147 43.2838 44.9817 42.5532 45.1269 44.2929C45.2721 46.0327 45.3035 47.814 45.3035 47.814L47.1593 52.5005L47.4641 52.6569C47.4641 52.6569 47.8633 48.9844 48.0956 48.4444C48.3279 47.9044 48.4875 46.5898 49.3658 46.7877C50.2465 46.9856 50.3191 47.7211 50.1618 48.9184C50.0046 50.1157 49.8062 51.3521 49.8812 52.1267C49.9537 52.9013 50.3022 54.6043 50.1957 55.9556C50.0892 57.3068 49.3561 58.7362 48.5843 59.7381C47.8149 60.7399 46.3439 62.8119 45.543 63.4374C45.2624 63.6549 42.8816 58.6703 42.8816 58.6703Z" fill="#FFBE9D"/>
<path d="M43.8217 52.442C43.812 52.442 43.8144 52.3247 43.8265 52.1145C43.8434 51.88 43.8628 51.5819 43.887 51.2251C43.9426 50.475 44.0297 49.439 44.1338 48.2954C44.187 47.7261 44.2378 47.1812 44.2838 46.6852C44.308 46.4384 44.3225 46.2063 44.291 45.9937C44.262 45.7811 44.1797 45.5978 44.0588 45.4659C43.8144 45.1971 43.4975 45.1287 43.3015 45.1311C43.0958 45.1287 42.9894 45.1849 42.9845 45.1727C42.9821 45.1678 43.0087 45.1556 43.0595 45.1336C43.1128 45.114 43.1926 45.0896 43.2991 45.0823C43.5071 45.0676 43.8459 45.1214 44.1241 45.4072C44.262 45.549 44.3588 45.7542 44.3927 45.979C44.4314 46.2063 44.4169 46.4482 44.3975 46.6974C44.3539 47.1959 44.3056 47.7383 44.2572 48.3101C44.1531 49.4536 44.0515 50.4872 43.9741 51.2349C43.933 51.5892 43.8991 51.8873 43.8725 52.1194C43.8483 52.3271 43.8289 52.442 43.8217 52.442Z" fill="#EB996E"/>
<path d="M44.8175 49.312C44.8344 49.3266 44.6287 49.5099 44.4884 49.9155C44.3384 50.3138 44.2852 50.9149 44.1787 51.5673C44.0795 52.2221 43.9803 52.8134 43.9053 53.2386C43.8279 53.6662 43.7723 53.9277 43.7553 53.9252C43.7384 53.9228 43.7626 53.654 43.8182 53.2239C43.8715 52.7939 43.9561 52.2001 44.0553 51.5453C44.1594 50.8953 44.2271 50.2918 44.4062 49.8788C44.4908 49.6736 44.5925 49.5245 44.6747 49.4317C44.7546 49.3437 44.8126 49.3071 44.8175 49.312Z" fill="#EB996E"/>
<path d="M44.1402 43.1812C44.1499 43.1788 44.1717 43.2643 44.2056 43.4231C44.2394 43.5795 44.2806 43.8067 44.3265 44.0902C44.4185 44.6546 44.5201 45.439 44.5854 46.3113C44.6483 47.1836 44.6629 47.9753 44.6532 48.547C44.6483 48.8329 44.6411 49.0651 44.629 49.2239C44.6193 49.3827 44.6096 49.4707 44.5999 49.4707C44.5806 49.4707 44.5782 49.1164 44.5637 48.547C44.5491 47.9753 44.5225 47.1885 44.4596 46.3211C44.3967 45.4536 44.3096 44.6693 44.2394 44.1024C44.1693 43.5355 44.1233 43.1861 44.1402 43.1812Z" fill="#EB996E"/>
<path d="M49.4917 50.3577C49.5111 50.387 49.2208 50.5214 48.8675 50.4115C48.5119 50.304 48.3473 50.0279 48.3788 50.0157C48.4078 49.9912 48.5917 50.1989 48.9038 50.2918C49.2135 50.3895 49.4821 50.3211 49.4917 50.3577Z" fill="#EB996E"/>
<path d="M42.9862 57.7173L38.082 59.7991H35.1592C35.1592 59.7991 32.2704 60.7105 31.8252 63.4448C31.38 66.1814 31.3171 67.5889 32.5873 67.9261C33.8576 68.2632 37.4456 68.3023 39.224 67.7061C41.0023 67.1099 45.6598 63.3128 45.6598 63.3128L46.1098 60.5664L42.9862 57.7173Z" fill="#FFBE9D"/>
<path d="M44.1373 60.7401C44.1301 60.745 44.0817 60.701 43.997 60.6106C43.9099 60.5251 43.8034 60.3834 43.6776 60.2026C43.4357 59.836 43.1695 59.2814 42.9929 58.6363C42.809 57.9912 42.7316 57.3877 42.6905 56.9528C42.6542 56.5178 42.6542 56.2466 42.6711 56.2442C42.6905 56.2417 42.7195 56.5105 42.7776 56.9405C42.8405 57.3706 42.9324 57.9644 43.1115 58.5996C43.2857 59.2374 43.5325 59.7823 43.7502 60.1537C43.9752 60.5251 44.1543 60.7255 44.1373 60.7401Z" fill="#EB996E"/>
<path d="M46.2704 61.6097C46.2437 61.6 46.4639 61.2237 46.5486 60.5468C46.5897 60.2121 46.5849 59.804 46.4905 59.3666C46.3962 58.9293 46.1905 58.4797 45.8905 58.0594C45.5929 57.6367 45.2566 57.2702 44.9759 56.9159C44.6904 56.5616 44.463 56.217 44.313 55.9043C44.163 55.5915 44.0928 55.3154 44.0662 55.1224C44.042 54.9293 44.0517 54.8218 44.059 54.8218C44.0832 54.8169 44.0759 55.2592 44.3929 55.8627C44.5477 56.1633 44.78 56.4956 45.0655 56.8401C45.351 57.1871 45.6897 57.5536 45.9945 57.9836C46.3018 58.4112 46.5171 58.8853 46.6067 59.3373C46.6986 59.7894 46.6913 60.2121 46.6381 60.5542C46.5849 60.8987 46.4905 61.165 46.4131 61.3409C46.3768 61.4289 46.3405 61.4949 46.3139 61.5389C46.2873 61.5902 46.2728 61.6122 46.2704 61.6097Z" fill="#EB996E"/>
<path d="M38.7101 49.6832C38.6786 49.7003 38.1439 48.7156 37.5149 47.4865C36.8858 46.2574 36.4019 45.2483 36.4309 45.2312C36.4624 45.2141 36.9971 46.1988 37.6262 47.4278C38.2552 48.6594 38.7415 49.6685 38.7101 49.6832Z" fill="white"/>
<path d="M46.6388 40.7669C46.6073 40.7522 46.9388 39.9337 47.3767 38.9368C47.8171 37.9398 48.1994 37.1433 48.2308 37.1579C48.2623 37.1726 47.9308 37.9911 47.4929 38.9881C47.0525 39.985 46.6702 40.7816 46.6388 40.7669Z" fill="white"/>
<path d="M54.4067 46.5555C54.3801 46.5775 53.8816 46.0155 53.2961 45.2996C52.7082 44.5837 52.2558 43.985 52.2824 43.963C52.309 43.941 52.8074 44.503 53.3929 45.219C53.9784 45.9325 54.4333 46.5311 54.4067 46.5555Z" fill="white"/>
<path d="M52.6188 54.5135C52.5897 54.4939 52.9647 53.9221 53.4559 53.238C53.947 52.5538 54.368 52.0163 54.3946 52.0382C54.4237 52.0578 54.0487 52.6296 53.5575 53.3137C53.0688 53.9954 52.6478 54.533 52.6188 54.5135Z" fill="white"/>
<path d="M50.2169 65.7536C50.2024 65.7609 50.0911 65.5752 49.9338 65.2624C49.7741 64.9497 49.5685 64.5123 49.3628 64.0212C49.1547 63.5276 48.9878 63.0755 48.8741 62.7432C48.7628 62.4109 48.7047 62.2008 48.7217 62.1959C48.7386 62.191 48.8257 62.3889 48.9588 62.7115C49.1112 63.078 49.2854 63.5031 49.4789 63.9723C49.6773 64.439 49.8588 64.8593 50.0161 65.2258C50.1516 65.5459 50.2338 65.7462 50.2169 65.7536Z" fill="white"/>
<path d="M57.0498 60.9767C57.0426 61.0109 56.3845 60.9107 55.5812 60.7543C54.7755 60.5979 54.1295 60.4415 54.1368 60.4073C54.144 60.3731 54.8021 60.4733 55.6054 60.6297C56.4111 60.7861 57.0571 60.9424 57.0498 60.9767Z" fill="white"/>
<path d="M62.3446 50.472C62.318 50.4476 62.947 49.7243 63.7454 48.852C64.5439 47.9821 65.2141 47.2955 65.2382 47.32C65.2649 47.3444 64.6358 48.0677 63.8374 48.94C63.0365 49.8099 62.3688 50.4965 62.3446 50.472Z" fill="white"/>
<path d="M67.6789 64.4807C67.6523 64.5027 66.8708 63.5888 65.932 62.438C64.9933 61.2871 64.2553 60.3366 64.2819 60.3146C64.3086 60.2926 65.0901 61.2065 66.0288 62.3573C66.9676 63.5082 67.7055 64.4587 67.6789 64.4807Z" fill="white"/>
<path d="M34.5846 58.5087C34.6015 58.5429 33.8878 58.9094 33.1087 59.5129C32.3272 60.1116 31.7877 60.7127 31.7587 60.6858C31.7466 60.676 31.8651 60.5123 32.0877 60.2704C32.3079 60.0309 32.6369 59.7182 33.0313 59.4128C33.4257 59.1098 33.8128 58.8727 34.1007 58.7188C34.3886 58.5673 34.5773 58.4965 34.5846 58.5087Z" fill="white"/>
<path d="M36.5794 53.111C36.6084 53.1306 36.3544 53.568 36.0108 54.0884C35.6672 54.6089 35.3672 55.0145 35.3382 54.9949C35.3092 54.9754 35.5632 54.538 35.9068 54.0176C36.2479 53.4971 36.5504 53.0915 36.5794 53.111Z" fill="white"/>
<path d="M41.0733 58.4134C41.0467 58.4305 40.7927 58.0029 40.662 57.4091C40.5265 56.8178 40.5725 56.3218 40.604 56.3242C40.6427 56.3242 40.6548 56.8056 40.7854 57.3798C40.9112 57.9565 41.1072 58.3963 41.0733 58.4134Z" fill="white"/>
<path d="M41.734 41.5734C41.7388 41.6076 41.3226 41.698 40.8025 41.7713C40.2823 41.847 39.8564 41.8788 39.8516 41.8446C39.8468 41.8104 40.2629 41.72 40.7831 41.6467C41.3033 41.5709 41.7291 41.5367 41.734 41.5734Z" fill="white"/>
<path d="M45.1058 35.5304C45.1228 35.5621 44.7574 35.7991 44.2905 36.0606C43.8235 36.322 43.4291 36.5102 43.4146 36.4784C43.3977 36.4467 43.763 36.2096 44.23 35.9482C44.6969 35.6867 45.0889 35.4986 45.1058 35.5304Z" fill="white"/>
<path d="M54.5959 38.0813C54.5693 38.1033 54.1507 37.595 53.662 36.9475C53.1733 36.3 52.8007 35.76 52.8297 35.738C52.8563 35.716 53.2749 36.2242 53.7636 36.8718C54.2524 37.5193 54.625 38.0617 54.5959 38.0813Z" fill="white"/>
<path d="M66.6344 44.158C66.6102 44.18 66.1698 43.7231 65.7634 43.0585C65.3521 42.3939 65.1416 41.7952 65.1706 41.783C65.2045 41.7683 65.4658 42.3377 65.8698 42.9925C66.2739 43.6449 66.6634 44.1336 66.6344 44.158Z" fill="white"/>
<path d="M71.2331 45.6878C71.2646 45.7025 71.042 46.2693 70.7347 46.9511C70.4274 47.6352 70.154 48.1777 70.1201 48.163C70.0887 48.1483 70.3113 47.5815 70.6186 46.8997C70.9283 46.2156 71.2017 45.6731 71.2331 45.6878Z" fill="white"/>
<path d="M71.8753 39.3521C71.8487 39.3741 71.3018 38.7559 70.6534 37.9691C70.005 37.1823 69.5017 36.525 69.5284 36.503C69.555 36.481 70.1018 37.0992 70.7502 37.886C71.3962 38.6728 71.9019 39.3301 71.8753 39.3521Z" fill="white"/>
<path d="M64.8586 34.2061C64.8247 34.2086 64.7739 33.6783 64.7497 33.021C64.7231 32.3662 64.7327 31.8335 64.7666 31.8311C64.8005 31.8286 64.8513 32.3589 64.8755 33.0161C64.9021 33.671 64.8948 34.2037 64.8586 34.2061Z" fill="white"/>
<path d="M70.5807 33.8859C70.5856 33.9201 69.9154 34.0398 69.0879 34.1522C68.258 34.2646 67.583 34.3257 67.5782 34.2915C67.5733 34.2573 68.2411 34.1376 69.071 34.0252C69.8984 33.9128 70.5759 33.8492 70.5807 33.8859Z" fill="white"/>
<path d="M79.5946 40.574C79.5631 40.5886 79.1615 39.814 78.6945 38.844C78.23 37.8739 77.8767 37.0725 77.9082 37.0578C77.9397 37.0432 78.3413 37.8177 78.8082 38.7878C79.2728 39.7578 79.626 40.5569 79.5946 40.574Z" fill="white"/>
<path d="M78.0772 46.35C78.0433 46.3427 78.1377 45.7196 78.2877 44.9597C78.4377 44.1974 78.5877 43.5865 78.6216 43.5938C78.6554 43.6011 78.5611 44.2242 78.4111 44.9841C78.2587 45.7465 78.1111 46.3574 78.0772 46.35Z" fill="white"/>
<path d="M82.2566 50.9071C82.2227 50.9194 81.9033 50.0788 81.538 49.0306C81.1751 47.9823 80.9065 47.1222 80.9404 47.11C80.9743 47.0978 81.2936 47.9383 81.659 48.9866C82.0219 50.0348 82.288 50.8949 82.2566 50.9071Z" fill="white"/>
<path d="M81.6739 53.5705C81.6666 53.6023 81.0884 53.4801 80.4521 53.1283C79.8133 52.7813 79.3948 52.3586 79.419 52.3366C79.4432 52.3073 79.8883 52.6787 80.5126 53.0183C81.1319 53.3604 81.686 53.5339 81.6739 53.5705Z" fill="white"/>
<path d="M87.0341 59.6474C87.0027 59.662 86.8091 59.2906 86.601 58.819C86.393 58.3474 86.2502 57.954 86.2817 57.9394C86.3131 57.9247 86.5067 58.2961 86.7148 58.7677C86.9228 59.2393 87.0656 59.6327 87.0341 59.6474Z" fill="white"/>
<path d="M55.3913 68.1213C55.3574 68.1262 55.2727 67.6399 55.2025 67.0388C55.1324 66.4377 55.1057 65.9466 55.1396 65.9417C55.1735 65.9368 55.2582 66.4231 55.3283 67.0242C55.3985 67.6253 55.4251 68.1164 55.3913 68.1213Z" fill="white"/>
<path d="M71.8327 67.7011C71.7989 67.6937 71.869 67.2197 71.99 66.643C72.111 66.0664 72.2368 65.6046 72.2707 65.6119C72.3045 65.6192 72.2344 66.0933 72.1134 66.6699C71.9924 67.2466 71.8666 67.7084 71.8327 67.7011Z" fill="white"/>
<path d="M74.9961 19.25L77.1204 15.4675C76.1792 13.9257 75.6373 12.1127 75.6373 10.1701C75.6373 4.58193 80.123 0.0517578 85.6563 0.0517578C91.1897 0.0517578 95.6754 4.58193 95.6754 10.1701C95.6754 15.7583 91.1897 20.2885 85.6563 20.2885C83.3457 20.2885 81.219 19.4968 79.5254 18.17L79.5278 18.1749L74.9961 19.25Z" fill="#FAFAFA"/>
<path d="M74.9961 19.2498C75.2114 19.201 76.6462 18.8687 79.535 18.2016L79.581 18.1918L79.552 18.1527L79.5495 18.1478L79.506 18.1918C80.077 18.639 80.7617 19.0788 81.5674 19.4478C82.3731 19.8094 83.2973 20.1026 84.3159 20.2394C84.824 20.3054 85.3563 20.347 85.9031 20.3201C86.1765 20.3054 86.4547 20.2981 86.7354 20.2736C87.0136 20.2321 87.2967 20.1881 87.5822 20.1441C88.7169 19.9169 89.8758 19.482 90.9598 18.8051C92.0413 18.1283 93.0429 17.212 93.8462 16.0856C94.647 14.9591 95.2543 13.625 95.5398 12.176C95.8205 10.7271 95.7987 9.17546 95.4213 7.67274C95.0414 6.1749 94.3325 4.71371 93.2728 3.51153L92.8639 3.05704C92.7284 2.90311 92.5687 2.77849 92.4236 2.63677C92.2711 2.50482 92.1332 2.35333 91.9687 2.23604L91.4872 1.87197C91.3324 1.74491 91.1606 1.64228 90.9888 1.53966C90.8194 1.43459 90.6501 1.33196 90.4807 1.22689C90.3017 1.13893 90.1251 1.05341 89.9484 0.965443C89.7694 0.882366 89.5976 0.784627 89.4113 0.723541C87.9548 0.139555 86.4039 -0.0828002 84.9183 0.0271554C83.4328 0.134668 82.0126 0.564716 80.7956 1.25866C79.5737 1.94527 78.543 2.86401 77.747 3.88782C76.9486 4.91407 76.3873 6.04295 76.0389 7.16938C75.6929 8.3007 75.5985 9.42225 75.6034 10.4607C75.6324 11.5016 75.8211 12.4619 76.0945 13.3025C76.3679 14.1455 76.7284 14.8712 77.0986 15.4796V15.4503C75.7558 17.8791 75.1001 19.0641 74.9961 19.2498C75.1026 19.0641 75.7727 17.8888 77.147 15.482L77.1567 15.4674L77.147 15.4527C76.7817 14.8443 76.4284 14.121 76.1599 13.2829C75.8937 12.4448 75.7098 11.4943 75.6856 10.4607C75.6856 9.42958 75.7824 8.32025 76.1284 7.20115C76.4768 6.08693 77.0357 4.97027 77.8269 3.95624C78.6156 2.94464 79.6366 2.03812 80.8464 1.36128C82.0513 0.677115 83.457 0.254397 84.9232 0.149328C86.3894 0.0442596 87.9233 0.264171 89.3605 0.840827C89.5444 0.89947 89.7137 0.997208 89.8904 1.08029C90.0646 1.16581 90.2412 1.25133 90.4154 1.33929C90.5823 1.44192 90.7493 1.54454 90.9186 1.64717C91.088 1.74979 91.2574 1.84997 91.4098 1.97703L91.884 2.33622C92.0461 2.45107 92.1816 2.60012 92.3316 2.73206C92.4744 2.87134 92.634 2.99596 92.7671 3.14745L93.1712 3.59705C94.2188 4.78457 94.918 6.22865 95.293 7.70694C95.6656 9.19012 95.6898 10.7246 95.414 12.1565C95.1334 13.5883 94.5358 14.9103 93.7446 16.022C92.9534 17.1387 91.9639 18.0477 90.8944 18.7172C89.825 19.3916 88.6782 19.8241 87.5556 20.0513C87.2725 20.0953 86.9918 20.1393 86.7184 20.1808C86.4402 20.2052 86.1668 20.2126 85.8958 20.2297C85.3539 20.259 84.8264 20.2174 84.3232 20.1539C83.3118 20.022 82.3948 19.7336 81.594 19.3793C80.7931 19.0202 80.1109 18.5852 79.5399 18.1454L79.3536 18.0012L79.4963 18.1894L79.4987 18.1943L79.5157 18.1454C76.6413 18.8467 75.2114 19.1985 74.9961 19.2498Z" fill="#263238"/>
<path d="M88.3555 9.74741C88.3555 10.2923 88.7934 10.737 89.3354 10.737C89.8773 10.737 90.3153 10.2947 90.3153 9.74741C90.3153 9.20252 89.8773 8.75781 89.3354 8.75781C88.7934 8.75781 88.3555 9.20008 88.3555 9.74741Z" fill="#263238"/>
<path d="M84.4336 9.74741C84.4336 10.2923 84.8715 10.737 85.4135 10.737C85.9554 10.737 86.3934 10.2947 86.3934 9.74741C86.3934 9.20252 85.9554 8.75781 85.4135 8.75781C84.8715 8.75781 84.4336 9.20008 84.4336 9.74741Z" fill="#263238"/>
<path d="M80.5376 9.25154C80.2667 9.72557 80.4288 10.3291 80.8957 10.6028C81.3651 10.8764 81.9627 10.7127 82.2337 10.2411C82.5046 9.76711 82.3425 9.16358 81.8756 8.88991C81.4062 8.61869 80.8062 8.77995 80.5376 9.25154Z" fill="#263238"/>
</svg>
