<svg width="195" height="66" viewBox="0 0 195 66" fill="none" xmlns="http://www.w3.org/2000/svg">
<rect width="192" height="66" rx="10" fill="black"/>
<path opacity="0.2" d="M53 0H185C190.523 0 195 4.47715 195 10V56C195 61.5228 190.523 66 185 66H118.5C118.5 66 114.057 38.6538 103.5 25.5C89.6716 8.26979 53 0 53 0Z" fill="url(#paint0_linear)"/>
<g clip-path="url(#clip0)">
<path d="M75.396 19.7022C75.396 20.7536 75.0775 21.5957 74.4501 22.2238C73.7287 22.9682 72.7891 23.3429 71.6377 23.3429C70.5373 23.3429 69.5977 22.9619 68.8269 22.2112C68.0546 21.4493 67.6692 20.5144 67.6692 19.3953C67.6692 18.2762 68.0546 17.3413 68.8269 16.5857C69.5977 15.8287 70.5373 15.4478 71.6377 15.4478C72.1856 15.4478 72.7079 15.5595 73.2063 15.7673C73.7032 15.9766 74.1077 16.2599 74.4007 16.6094L73.7351 17.2736C73.2239 16.677 72.5279 16.3827 71.6377 16.3827C70.8351 16.3827 70.1392 16.6597 69.5484 17.2185C68.9639 17.7788 68.6709 18.5044 68.6709 19.3953C68.6709 20.2862 68.9639 21.0181 69.5484 21.5784C70.1392 22.1309 70.8351 22.4142 71.6377 22.4142C72.4897 22.4142 73.2064 22.1309 73.7717 21.5721C74.1443 21.2022 74.3561 20.6923 74.4119 20.0406H71.6377V19.1309H75.3387C75.3833 19.3276 75.396 19.5181 75.396 19.7022V19.7022Z" fill="white" stroke="white" stroke-width="0.203355" stroke-miterlimit="10"/>
<path d="M81.2676 16.5479H77.7912V18.9404H80.9252V19.8501H77.7912V22.2426H81.2676V23.1697H76.807V15.6208H81.2676V16.5479Z" fill="white" stroke="white" stroke-width="0.203355" stroke-miterlimit="10"/>
<path d="M85.4112 23.1697H84.4271V16.5479H82.2947V15.6208H87.5452V16.5479H85.4112V23.1697V23.1697Z" fill="white" stroke="white" stroke-width="0.203355" stroke-miterlimit="10"/>
<path d="M91.3452 23.1697V15.6208H92.3278V23.1697H91.3452Z" fill="white" stroke="white" stroke-width="0.203355" stroke-miterlimit="10"/>
<path d="M96.6833 23.1697H95.7071V16.5479H93.5668V15.6208H98.8236V16.5479H96.6833V23.1697Z" fill="white" stroke="white" stroke-width="0.203355" stroke-miterlimit="10"/>
<path d="M108.764 22.1986C108.011 22.9619 107.078 23.3429 105.964 23.3429C104.845 23.3429 103.912 22.9619 103.158 22.1986C102.407 21.4368 102.032 20.5018 102.032 19.3953C102.032 18.2888 102.407 17.3538 103.158 16.592C103.912 15.8287 104.845 15.4478 105.964 15.4478C107.071 15.4478 108.004 15.8287 108.758 16.5983C109.516 17.3664 109.89 18.2951 109.89 19.3953C109.89 20.5018 109.516 21.4368 108.764 22.1986ZM103.886 21.5658C104.453 22.1309 105.143 22.4142 105.964 22.4142C106.78 22.4142 107.476 22.1309 108.036 21.5658C108.602 21.0008 108.888 20.2752 108.888 19.3953C108.888 18.5154 108.602 17.7898 108.036 17.2248C107.476 16.6597 106.78 16.3764 105.964 16.3764C105.143 16.3764 104.453 16.6597 103.886 17.2248C103.321 17.7898 103.034 18.5154 103.034 19.3953C103.034 20.2752 103.321 21.0008 103.886 21.5658V21.5658Z" fill="white" stroke="white" stroke-width="0.203355" stroke-miterlimit="10"/>
<path d="M111.271 23.1697V15.6208H112.465L116.179 21.4918H116.222L116.179 20.0406V15.6208H117.161V23.1697H116.136L112.247 17.0091H112.204L112.247 18.4666V23.1697H111.271V23.1697Z" fill="white" stroke="white" stroke-width="0.203355" stroke-miterlimit="10"/>
<path d="M101.79 34.1939C98.7979 34.1939 96.3534 36.4447 96.3534 39.5502C96.3534 42.6305 98.7979 44.9049 101.79 44.9049C104.789 44.9049 107.233 42.6305 107.233 39.5502C107.233 36.4447 104.789 34.1939 101.79 34.1939ZM101.79 42.7957C100.148 42.7957 98.7358 41.4563 98.7358 39.5502C98.7358 37.6189 100.148 36.303 101.79 36.303C103.432 36.303 104.851 37.6189 104.851 39.5502C104.851 41.4563 103.432 42.7957 101.79 42.7957ZM89.9276 34.1939C86.929 34.1939 84.4908 36.4447 84.4908 39.5502C84.4908 42.6305 86.929 44.9049 89.9276 44.9049C92.9248 44.9049 95.3645 42.6305 95.3645 39.5502C95.3645 36.4447 92.9248 34.1939 89.9276 34.1939ZM89.9276 42.7957C88.2842 42.7957 86.8668 41.4563 86.8668 39.5502C86.8668 37.6189 88.2842 36.303 89.9276 36.303C91.5695 36.303 92.9821 37.6189 92.9821 39.5502C92.9821 41.4563 91.5695 42.7957 89.9276 42.7957ZM75.8116 35.8356V38.1116H81.3106C81.1497 39.3833 80.7198 40.3183 80.0605 40.9699C79.2578 41.7569 78.0077 42.6305 75.8116 42.6305C72.4275 42.6305 69.7776 39.9311 69.7776 36.5864C69.7776 33.2417 72.4275 30.5423 75.8116 30.5423C77.6414 30.5423 78.9728 31.249 79.9553 32.165L81.5781 30.5612C80.2038 29.2642 78.3756 28.2679 75.8116 28.2679C71.1711 28.2679 67.271 31.9998 67.271 36.5864C67.271 41.173 71.1711 44.9049 75.8116 44.9049C78.3198 44.9049 80.2038 44.0927 81.6848 42.5691C83.2025 41.0691 83.6755 38.9599 83.6755 37.2569C83.6755 36.728 83.6309 36.2417 83.5512 35.8356H75.8116ZM133.534 37.6C133.086 36.4022 131.706 34.1939 128.893 34.1939C126.106 34.1939 123.786 36.3644 123.786 39.5502C123.786 42.5502 126.082 44.9049 129.161 44.9049C131.65 44.9049 133.086 43.4049 133.677 42.5313L131.83 41.3146C131.214 42.2055 130.374 42.7957 129.161 42.7957C127.955 42.7957 127.09 42.2496 126.536 41.1729L133.784 38.2091L133.534 37.6ZM126.145 39.3833C126.082 37.3183 127.767 36.2605 128.974 36.2605C129.92 36.2605 130.723 36.728 130.991 37.397L126.145 39.3833ZM120.254 44.579H122.636V28.8392H120.254V44.579ZM116.352 35.387H116.273C115.737 34.7605 114.717 34.1939 113.424 34.1939C110.71 34.1939 108.229 36.5486 108.229 39.5675C108.229 42.5691 110.71 44.9049 113.424 44.9049C114.717 44.9049 115.737 44.3335 116.273 43.6882H116.352V44.4563C116.352 46.504 115.245 47.6042 113.46 47.6042C112.005 47.6042 111.102 46.5654 110.729 45.6919L108.657 46.5465C109.254 47.9663 110.836 49.7134 113.46 49.7134C116.253 49.7134 118.61 48.089 118.61 44.1368V34.5197H116.352V35.387ZM113.627 42.7957C111.986 42.7957 110.611 41.4374 110.611 39.5675C110.611 37.6803 111.986 36.303 113.627 36.303C115.245 36.303 116.521 37.6803 116.521 39.5675C116.521 41.4374 115.245 42.7957 113.627 42.7957ZM144.688 28.8392H138.99V44.579H141.366V38.6152H144.688C147.327 38.6152 149.914 36.728 149.914 33.7264C149.914 30.7264 147.32 28.8392 144.688 28.8392ZM144.75 36.4258H141.366V31.0286H144.75C146.524 31.0286 147.537 32.4846 147.537 33.7264C147.537 34.9447 146.524 36.4258 144.75 36.4258ZM159.438 34.164C157.721 34.164 155.936 34.9132 155.201 36.5738L157.31 37.4473C157.764 36.5738 158.598 36.2905 159.481 36.2905C160.713 36.2905 161.963 37.0224 161.982 38.3146V38.4799C161.552 38.2343 160.632 37.8707 159.5 37.8707C157.229 37.8707 154.915 39.1063 154.915 41.4122C154.915 43.5213 156.775 44.8797 158.866 44.8797C160.465 44.8797 161.347 44.1667 161.901 43.3372H161.982V44.5539H164.277V38.5161C164.277 35.7254 162.169 34.164 159.438 34.164ZM159.151 42.7894C158.374 42.7894 157.291 42.4085 157.291 41.4563C157.291 40.238 158.641 39.7705 159.81 39.7705C160.857 39.7705 161.347 39.9988 161.982 40.2994C161.796 41.7569 160.527 42.7894 159.151 42.7894ZM172.638 34.5087L169.907 41.3319H169.826L167.002 34.5087H164.44L168.682 44.0439L166.261 49.3498H168.744L175.281 34.5087H172.638ZM151.22 44.579H153.603V28.8392H151.22V44.579Z" fill="white"/>
<path d="M28.2799 16.2962C27.9057 16.6834 27.6891 17.2862 27.6891 18.0669V45.9138C27.6891 46.6945 27.9057 47.2973 28.2799 47.6845L28.3723 47.7695L44.1604 32.1714V31.8031L28.3723 16.2049L28.2799 16.2962Z" fill="url(#paint1_linear)"/>
<path d="M49.4175 37.3733L44.1606 32.1713V31.803L49.4239 26.601L49.5417 26.6686L55.7748 30.1739C57.5537 31.1686 57.5537 32.8056 55.7748 33.8066L49.5417 37.3056L49.4175 37.3733V37.3733Z" fill="url(#paint2_linear)"/>
<path d="M49.5418 37.3057L44.1607 31.9872L28.2802 47.6845C28.871 48.2984 29.8344 48.3724 30.9301 47.7585L49.5418 37.3057" fill="url(#paint3_linear)"/>
<path d="M49.5418 26.6686L30.9301 16.2158C29.8344 15.6082 28.871 15.6822 28.2802 16.296L44.1607 31.9871L49.5418 26.6686Z" fill="url(#paint4_linear)"/>
</g>
<defs>
<linearGradient id="paint0_linear" x1="124" y1="0" x2="124" y2="66" gradientUnits="userSpaceOnUse">
<stop stop-color="white"/>
<stop offset="1" stop-color="white" stop-opacity="0"/>
</linearGradient>
<linearGradient id="paint1_linear" x1="42.7586" y1="46.2038" x2="21.6279" y2="24.8243" gradientUnits="userSpaceOnUse">
<stop stop-color="#00A0FF"/>
<stop offset="0.0066" stop-color="#00A1FF"/>
<stop offset="0.2601" stop-color="#00BEFF"/>
<stop offset="0.5122" stop-color="#00D2FF"/>
<stop offset="0.7604" stop-color="#00DFFF"/>
<stop offset="1" stop-color="#00E3FF"/>
</linearGradient>
<linearGradient id="paint2_linear" x1="58.0912" y1="31.9854" x2="27.2641" y2="31.9854" gradientUnits="userSpaceOnUse">
<stop stop-color="#FFE000"/>
<stop offset="0.4087" stop-color="#FFBD00"/>
<stop offset="0.7754" stop-color="#FFA500"/>
<stop offset="1" stop-color="#FF9C00"/>
</linearGradient>
<linearGradient id="paint3_linear" x1="46.6157" y1="29.096" x2="17.9607" y2="0.10371" gradientUnits="userSpaceOnUse">
<stop stop-color="#FF3A44"/>
<stop offset="1" stop-color="#C31162"/>
</linearGradient>
<linearGradient id="paint4_linear" x1="24.2827" y1="56.9489" x2="37.0784" y2="44.0027" gradientUnits="userSpaceOnUse">
<stop stop-color="#32A071"/>
<stop offset="0.0685" stop-color="#2DA771"/>
<stop offset="0.4762" stop-color="#15CF74"/>
<stop offset="0.8009" stop-color="#06E775"/>
<stop offset="1" stop-color="#00F076"/>
</linearGradient>
<clipPath id="clip0">
<rect width="156" height="46" fill="white" transform="translate(25 10)"/>
</clipPath>
</defs>
</svg>
