<svg width="192" height="66" viewBox="0 0 192 66" fill="none" xmlns="http://www.w3.org/2000/svg">
<rect width="192" height="66" rx="10" fill="black"/>
<path opacity="0.2" d="M50 0H182C187.523 0 192 4.47715 192 10V56C192 61.5229 187.523 66 182 66H115.5C115.5 66 111.057 38.6538 100.5 25.5C86.6716 8.26979 50 0 50 0Z" fill="url(#paint0_linear)"/>
<g clip-path="url(#clip0)">
<path d="M51.8065 15.252H29.6896C25.4496 15.252 22 18.7015 22 22.9416V45.0585C22 49.2986 25.4496 52.7481 29.6896 52.7481H51.8065C56.0466 52.7481 59.4962 49.2986 59.4962 45.0585V22.9416C59.4962 18.7015 56.0466 15.252 51.8065 15.252ZM57.2991 45.0585C57.2991 48.0871 54.8352 50.5511 51.8065 50.5511H29.6896C26.661 50.5511 24.197 48.0871 24.197 45.0585V22.9416C24.197 19.913 26.661 17.449 29.6896 17.449H51.8065C54.8352 17.449 57.2991 19.913 57.2991 22.9416V45.0585Z" fill="white"/>
<path d="M44.3841 24.2986C44.2574 23.8263 43.9545 23.4314 43.531 23.1869C42.6569 22.6822 41.5349 22.9827 41.0301 23.8571L40.7482 24.3451L40.4664 23.857C39.9616 22.9828 38.8397 22.6822 37.9655 23.1868H37.9654C37.0911 23.6917 36.7906 24.8135 37.2953 25.6879L38.6341 28.0068L33.6941 36.5632H30.0926C29.083 36.5632 28.2617 37.3845 28.2617 38.394C28.2617 39.4036 29.083 40.2249 30.0926 40.2249H43.9969L41.8828 36.5632H37.9223L44.2011 25.688C44.4456 25.2644 44.5107 24.771 44.3841 24.2986Z" fill="white"/>
<path d="M51.4037 36.5633H47.8022L43.7078 29.4717L41.5938 33.1334L47.9508 44.1441C48.1953 44.5677 48.5901 44.8707 49.0626 44.9973C49.2203 45.0396 49.3804 45.0605 49.5394 45.0605C49.8567 45.0605 50.1698 44.9773 50.452 44.8144C51.3263 44.3096 51.6268 43.1876 51.122 42.3134L49.9162 40.225H51.4037C52.4132 40.225 53.2346 39.4037 53.2346 38.3942C53.2346 37.3846 52.4132 36.5633 51.4037 36.5633Z" fill="white"/>
<path d="M30.7339 41.6897L30.3738 42.3134C29.8691 43.1876 30.1697 44.3096 31.044 44.8143C31.3316 44.9804 31.6459 45.0593 31.9563 45.0592C32.5895 45.0592 33.2062 44.7308 33.545 44.1442L34.9621 41.6897H30.7339Z" fill="white"/>
</g>
<path d="M86.7218 45.6567H84.0608L82.6031 41.0763H77.5364L76.1479 45.6567H73.5571L78.5769 30.063H81.6774L86.7218 45.6567ZM82.1637 39.1546L80.8455 35.0828C80.706 34.6668 80.4447 33.6872 80.0592 32.1452H80.0123C79.8588 32.8084 79.6116 33.788 79.2718 35.0828L77.977 39.1546H82.1637Z" fill="white"/>
<path d="M99.6309 39.8963C99.6309 41.8086 99.1142 43.3202 98.0807 44.4298C97.155 45.4176 96.0055 45.9109 94.6334 45.9109C93.1523 45.9109 92.0883 45.3789 91.4404 44.315H91.3935V50.2382H88.8953V38.1141C88.8953 36.9118 88.8637 35.678 88.8027 34.4125H90.9998L91.1392 36.1947H91.1861C92.0192 34.8519 93.2835 34.1816 94.9802 34.1816C96.3067 34.1816 97.414 34.7054 98.2998 35.7541C99.188 36.804 99.6309 38.1844 99.6309 39.8963ZM97.0859 39.9877C97.0859 38.8933 96.8398 37.991 96.3453 37.2809C95.8051 36.5404 95.0798 36.1701 94.1705 36.1701C93.5542 36.1701 92.9941 36.3763 92.4938 36.7829C91.9923 37.1931 91.6642 37.7285 91.5107 38.3918C91.4333 38.7011 91.3947 38.9542 91.3947 39.1534V41.0282C91.3947 41.8461 91.6454 42.5363 92.1469 43.0999C92.6484 43.6635 93.2999 43.9447 94.1014 43.9447C95.0423 43.9447 95.7747 43.5815 96.2985 42.8573C96.8234 42.132 97.0859 41.1759 97.0859 39.9877Z" fill="white"/>
<path d="M112.564 39.8963C112.564 41.8086 112.047 43.3202 111.012 44.4298C110.088 45.4176 108.938 45.9109 107.566 45.9109C106.085 45.9109 105.021 45.3789 104.374 44.315H104.328V50.2382H101.829V38.1141C101.829 36.9118 101.798 35.678 101.737 34.4125H103.934L104.073 36.1947H104.12C104.952 34.8519 106.216 34.1816 107.914 34.1816C109.24 34.1816 110.347 34.7054 111.235 35.7541C112.12 36.804 112.564 38.1844 112.564 39.8963ZM110.019 39.9877C110.019 38.8933 109.772 37.991 109.277 37.2809C108.737 36.5404 108.014 36.1701 107.103 36.1701C106.486 36.1701 105.927 36.3763 105.426 36.7829C104.924 37.1931 104.597 37.7285 104.444 38.3918C104.367 38.7011 104.328 38.9542 104.328 39.1534V41.0282C104.328 41.8461 104.578 42.5363 105.077 43.0999C105.579 43.6623 106.231 43.9447 107.034 43.9447C107.975 43.9447 108.708 43.5815 109.231 42.8573C109.756 42.132 110.019 41.1759 110.019 39.9877Z" fill="white"/>
<path d="M127.023 41.2837C127.023 42.6101 126.563 43.6893 125.638 44.5224C124.622 45.4329 123.208 45.8875 121.391 45.8875C119.713 45.8875 118.367 45.5641 117.349 44.9161L117.928 42.8339C119.025 43.4971 120.228 43.8299 121.539 43.8299C122.48 43.8299 123.213 43.6167 123.739 43.1925C124.262 42.7683 124.524 42.1988 124.524 41.4888C124.524 40.856 124.308 40.3229 123.876 39.8905C123.446 39.4581 122.727 39.0562 121.724 38.6847C118.994 37.6665 117.63 36.1748 117.63 34.2133C117.63 32.9314 118.108 31.8804 119.066 31.0625C120.02 30.2434 121.292 29.8345 122.883 29.8345C124.302 29.8345 125.481 30.0817 126.422 30.575L125.797 32.6115C124.919 32.1335 123.925 31.8944 122.813 31.8944C121.934 31.8944 121.248 32.1112 120.755 32.5424C120.339 32.9279 120.131 33.3978 120.131 33.9544C120.131 34.5707 120.369 35.0804 120.847 35.4812C121.263 35.8514 122.019 36.2522 123.115 36.6846C124.457 37.2247 125.442 37.8563 126.076 38.5805C126.708 39.3023 127.023 40.2057 127.023 41.2837Z" fill="white"/>
<path d="M135.283 36.2876H132.529V41.7468C132.529 43.1353 133.014 43.829 133.987 43.829C134.433 43.829 134.804 43.7903 135.096 43.713L135.166 45.6101C134.673 45.794 134.026 45.8866 133.223 45.8866C132.236 45.8866 131.465 45.5854 130.909 44.9843C130.354 44.3821 130.076 43.372 130.076 41.953V36.2852H128.435V34.4104H130.076V32.3516L132.529 31.6111V34.4104H135.283V36.2876Z" fill="white"/>
<path d="M147.707 39.942C147.707 41.6704 147.213 43.0894 146.226 44.199C145.191 45.3415 143.818 45.911 142.106 45.911C140.456 45.911 139.143 45.3638 138.163 44.2693C137.184 43.1749 136.694 41.7934 136.694 40.1284C136.694 38.3859 137.198 36.9588 138.209 35.8491C139.218 34.7383 140.579 34.1829 142.291 34.1829C143.941 34.1829 145.269 34.7301 146.271 35.8257C147.229 36.8884 147.707 38.2606 147.707 39.942ZM145.115 40.0229C145.115 38.9859 144.894 38.0965 144.445 37.3548C143.921 36.4572 143.172 36.0096 142.202 36.0096C141.198 36.0096 140.435 36.4584 139.911 37.3548C139.463 38.0977 139.241 39.0011 139.241 40.0698C139.241 41.1068 139.463 41.9961 139.911 42.7367C140.452 43.6342 141.206 44.0819 142.18 44.0819C143.134 44.0819 143.883 43.6249 144.423 42.7132C144.883 41.9575 145.115 41.0587 145.115 40.0229Z" fill="white"/>
<path d="M155.828 36.6095C155.581 36.5638 155.317 36.5404 155.04 36.5404C154.162 36.5404 153.482 36.872 153.004 37.5364C152.588 38.1223 152.379 38.8628 152.379 39.7569V45.6566H149.882L149.906 37.9535C149.906 36.6576 149.874 35.4776 149.812 34.4136H151.988L152.079 36.565H152.148C152.412 35.8256 152.828 35.2304 153.398 34.7839C153.954 34.382 154.555 34.1816 155.203 34.1816C155.434 34.1816 155.643 34.198 155.828 34.2273V36.6095Z" fill="white"/>
<path d="M167 39.5024C167 39.95 166.971 40.3274 166.909 40.6355H159.414C159.443 41.7463 159.805 42.5959 160.502 43.1817C161.133 43.7055 161.95 43.968 162.953 43.968C164.062 43.968 165.075 43.7911 165.985 43.436L166.377 45.1702C165.313 45.6342 164.057 45.8651 162.607 45.8651C160.864 45.8651 159.495 45.3518 158.499 44.3266C157.505 43.3013 157.007 41.9245 157.007 40.1973C157.007 38.5018 157.47 37.0898 158.397 35.9637C159.367 34.7615 160.678 34.1604 162.328 34.1604C163.949 34.1604 165.176 34.7615 166.009 35.9637C166.668 36.9187 167 38.0998 167 39.5024ZM164.618 38.8545C164.634 38.1139 164.471 37.4741 164.133 36.9339C163.7 36.2391 163.036 35.8923 162.142 35.8923C161.325 35.8923 160.661 36.2309 160.153 36.9105C159.738 37.4507 159.49 38.0987 159.414 38.8533H164.618V38.8545Z" fill="white"/>
<path d="M81.3375 20.4697C81.3375 21.8488 80.9239 22.887 80.0978 23.5842C79.3327 24.2275 78.2453 24.5497 76.8368 24.5497C76.1385 24.5497 75.5409 24.5193 75.0405 24.4583V16.9228C75.6932 16.8173 76.3962 16.7634 77.1555 16.7634C78.4972 16.7634 79.5084 17.0552 80.1904 17.6387C80.9544 18.2984 81.3375 19.2417 81.3375 20.4697ZM80.0428 20.5037C80.0428 19.6096 79.8061 18.9241 79.3327 18.4461C78.8593 17.9692 78.1679 17.7301 77.2575 17.7301C76.8708 17.7301 76.5415 17.7559 76.2685 17.8098V23.5385C76.4197 23.562 76.6962 23.5725 77.0981 23.5725C78.0379 23.5725 78.7632 23.3112 79.2741 22.7886C79.785 22.266 80.0428 21.5044 80.0428 20.5037Z" fill="white"/>
<path d="M88.203 21.6741C88.203 22.5236 87.9604 23.2196 87.4753 23.7657C86.9668 24.3269 86.293 24.607 85.4517 24.607C84.6408 24.607 83.9952 24.3387 83.5136 23.7996C83.0332 23.2618 82.793 22.5834 82.793 21.7655C82.793 20.9101 83.0402 20.2082 83.537 19.6633C84.0339 19.1185 84.7018 18.8455 85.5431 18.8455C86.3539 18.8455 87.0054 19.1138 87.4987 19.6516C87.9674 20.1742 88.203 20.8492 88.203 21.6741ZM86.9293 21.7139C86.9293 21.2042 86.8191 20.7671 86.6 20.4027C86.3422 19.9621 85.9755 19.7419 85.4986 19.7419C85.0052 19.7419 84.6303 19.9621 84.3725 20.4027C84.1522 20.7671 84.0432 21.2112 84.0432 21.7362C84.0432 22.2459 84.1534 22.683 84.3725 23.0474C84.6385 23.488 85.0088 23.7082 85.4868 23.7082C85.9555 23.7082 86.3235 23.4844 86.5883 23.0357C86.8156 22.6642 86.9293 22.2236 86.9293 21.7139Z" fill="white"/>
<path d="M97.4084 18.9583L95.68 24.4819H94.5551L93.8392 22.0833C93.6576 21.4846 93.5099 20.8893 93.3951 20.2987H93.3728C93.2662 20.9057 93.1186 21.4998 92.9287 22.0833L92.1683 24.4819H91.0305L89.4053 18.9583H90.6673L91.2918 21.5842C91.443 22.2052 91.5672 22.7969 91.6668 23.357H91.689C91.7804 22.8954 91.9316 22.3071 92.1448 21.5959L92.9287 18.9594H93.9294L94.6805 21.5396C94.8621 22.1689 95.0098 22.7747 95.1234 23.3582H95.1574C95.2406 22.7899 95.366 22.1841 95.5324 21.5396L96.2026 18.9594H97.4084V18.9583Z" fill="white"/>
<path d="M103.775 24.4817H102.547V21.318C102.547 20.3431 102.177 19.8556 101.434 19.8556C101.069 19.8556 100.775 19.9892 100.547 20.2575C100.32 20.5259 100.206 20.8422 100.206 21.2043V24.4805H98.9776V20.5364C98.9776 20.0513 98.9624 19.5252 98.9331 18.9557H100.012L100.07 19.8193H100.104C100.247 19.551 100.46 19.3295 100.74 19.1526C101.073 18.9463 101.445 18.842 101.853 18.842C102.369 18.842 102.798 19.0084 103.139 19.3424C103.563 19.7513 103.775 20.3618 103.775 21.1727V24.4817Z" fill="white"/>
<path d="M107.161 24.4817H105.934V16.4236H107.161V24.4817Z" fill="white"/>
<path d="M114.391 21.6741C114.391 22.5236 114.148 23.2196 113.663 23.7657C113.155 24.3269 112.48 24.607 111.64 24.607C110.828 24.607 110.182 24.3387 109.702 23.7996C109.221 23.2618 108.981 22.5834 108.981 21.7655C108.981 20.9101 109.228 20.2082 109.725 19.6633C110.222 19.1185 110.89 18.8455 111.73 18.8455C112.542 18.8455 113.192 19.1138 113.687 19.6516C114.155 20.1742 114.391 20.8492 114.391 21.6741ZM113.116 21.7139C113.116 21.2042 113.006 20.7671 112.787 20.4027C112.53 19.9621 112.162 19.7419 111.687 19.7419C111.192 19.7419 110.817 19.9621 110.56 20.4027C110.34 20.7671 110.231 21.2112 110.231 21.7362C110.231 22.2459 110.341 22.683 110.56 23.0474C110.826 23.488 111.197 23.7082 111.675 23.7082C112.144 23.7082 112.51 23.4844 112.775 23.0357C113.004 22.6642 113.116 22.2236 113.116 21.7139Z" fill="white"/>
<path d="M120.334 24.4816H119.231L119.14 23.8453H119.106C118.728 24.3527 118.19 24.607 117.492 24.607C116.971 24.607 116.549 24.4394 116.231 24.1066C115.943 23.8043 115.799 23.4282 115.799 22.9818C115.799 22.3068 116.08 21.7924 116.646 21.4362C117.211 21.08 118.005 20.9054 119.028 20.9136V20.8105C119.028 20.0828 118.646 19.7196 117.881 19.7196C117.336 19.7196 116.856 19.8567 116.441 20.1285L116.191 19.3224C116.705 19.0048 117.339 18.8455 118.086 18.8455C119.53 18.8455 120.254 19.6071 120.254 21.1304V23.1646C120.254 23.7164 120.281 24.1559 120.334 24.4816ZM119.059 22.5834V21.7315C117.704 21.7081 117.027 22.0795 117.027 22.8447C117.027 23.1329 117.104 23.3485 117.262 23.4926C117.421 23.6368 117.622 23.7082 117.862 23.7082C118.132 23.7082 118.384 23.6227 118.613 23.4528C118.844 23.2817 118.986 23.065 119.039 22.799C119.052 22.7392 119.059 22.6666 119.059 22.5834Z" fill="white"/>
<path d="M127.311 24.4817H126.222L126.164 23.5947H126.13C125.782 24.2697 125.189 24.6071 124.356 24.6071C123.691 24.6071 123.137 24.3458 122.697 23.8232C122.258 23.3006 122.039 22.6222 122.039 21.7891C122.039 20.895 122.276 20.1709 122.755 19.6178C123.217 19.1022 123.784 18.8444 124.459 18.8444C125.201 18.8444 125.72 19.094 126.016 19.5944H126.039V16.4236H127.268V22.9936C127.268 23.5315 127.282 24.0271 127.311 24.4817ZM126.039 22.1523V21.2313C126.039 21.0719 126.027 20.943 126.005 20.8446C125.936 20.5493 125.787 20.3009 125.561 20.1006C125.332 19.9002 125.057 19.7994 124.739 19.7994C124.281 19.7994 123.923 19.981 123.659 20.3455C123.398 20.7099 123.265 21.1751 123.265 21.7434C123.265 22.2894 123.391 22.7323 123.643 23.0733C123.909 23.4365 124.267 23.6182 124.716 23.6182C125.119 23.6182 125.441 23.467 125.686 23.1635C125.923 22.8835 126.039 22.546 126.039 22.1523Z" fill="white"/>
<path d="M137.814 21.6741C137.814 22.5236 137.572 23.2196 137.087 23.7657C136.578 24.3269 135.906 24.607 135.063 24.607C134.253 24.607 133.608 24.3387 133.125 23.7996C132.645 23.2618 132.404 22.5834 132.404 21.7655C132.404 20.9101 132.652 20.2082 133.148 19.6633C133.645 19.1185 134.313 18.8455 135.156 18.8455C135.965 18.8455 136.618 19.1138 137.11 19.6516C137.579 20.1742 137.814 20.8492 137.814 21.6741ZM136.542 21.7139C136.542 21.2042 136.432 20.7671 136.213 20.4027C135.954 19.9621 135.588 19.7419 135.11 19.7419C134.618 19.7419 134.243 19.9621 133.984 20.4027C133.764 20.7671 133.655 21.2112 133.655 21.7362C133.655 22.2459 133.765 22.683 133.984 23.0474C134.25 23.488 134.62 23.7082 135.098 23.7082C135.567 23.7082 135.936 23.4844 136.201 23.0357C136.427 22.6642 136.542 22.2236 136.542 21.7139Z" fill="white"/>
<path d="M144.417 24.4817H143.19V21.318C143.19 20.3431 142.82 19.8556 142.076 19.8556C141.711 19.8556 141.417 19.9892 141.19 20.2575C140.962 20.5259 140.849 20.8422 140.849 21.2043V24.4805H139.62V20.5364C139.62 20.0513 139.605 19.5252 139.576 18.9557H140.654L140.712 19.8193H140.746C140.89 19.551 141.103 19.3295 141.382 19.1526C141.716 18.9463 142.087 18.842 142.496 18.842C143.011 18.842 143.439 19.0084 143.78 19.3424C144.206 19.7513 144.417 20.3618 144.417 21.1727V24.4817Z" fill="white"/>
<path d="M152.681 19.878H151.329V22.5613C151.329 23.2433 151.569 23.5843 152.045 23.5843C152.266 23.5843 152.448 23.5655 152.592 23.5268L152.624 24.4584C152.382 24.5498 152.063 24.5955 151.67 24.5955C151.185 24.5955 150.808 24.4478 150.535 24.1526C150.261 23.8573 150.125 23.3604 150.125 22.6633V19.878H149.317V18.9582H150.125V17.9458L151.328 17.5825V18.957H152.68V19.878H152.681Z" fill="white"/>
<path d="M159.182 24.4817H157.953V21.3414C157.953 20.3513 157.582 19.8557 156.841 19.8557C156.271 19.8557 155.882 20.1427 155.669 20.7169C155.633 20.8376 155.612 20.9852 155.612 21.1586V24.4806H154.385V16.4236H155.612V19.7525H155.635C156.022 19.1467 156.576 18.8444 157.294 18.8444C157.803 18.8444 158.223 19.0108 158.557 19.3448C158.973 19.7607 159.182 20.3794 159.182 21.1973V24.4817Z" fill="white"/>
<path d="M165.888 21.4588C165.888 21.6791 165.871 21.8642 165.842 22.0154H162.159C162.176 22.5614 162.352 22.9774 162.693 23.2656C163.004 23.5234 163.406 23.6523 163.898 23.6523C164.443 23.6523 164.94 23.5656 165.388 23.391L165.58 24.244C165.056 24.4714 164.44 24.585 163.726 24.585C162.871 24.585 162.197 24.3331 161.709 23.8292C161.22 23.3254 160.977 22.6493 160.977 21.8009C160.977 20.9678 161.203 20.2741 161.659 19.7211C162.135 19.1305 162.778 18.8352 163.59 18.8352C164.385 18.8352 164.988 19.1305 165.396 19.7211C165.725 20.1898 165.888 20.7698 165.888 21.4588ZM164.716 21.1412C164.726 20.7768 164.645 20.4628 164.478 20.198C164.265 19.857 163.94 19.6859 163.501 19.6859C163.1 19.6859 162.773 19.8523 162.524 20.1862C162.32 20.4522 162.199 20.7698 162.159 21.1412H164.716Z" fill="white"/>
<defs>
<linearGradient id="paint0_linear" x1="121" y1="0" x2="121" y2="66" gradientUnits="userSpaceOnUse">
<stop stop-color="white"/>
<stop offset="1" stop-color="white" stop-opacity="0"/>
</linearGradient>
<clipPath id="clip0">
<rect width="37.4962" height="37.4962" fill="white" transform="translate(22 15.252)"/>
</clipPath>
</defs>
</svg>
